<svg width="60" height="54" viewBox="0 0 60 54" fill="none" xmlns="http://www.w3.org/2000/svg">
<path d="M59.2911 36.056C57.9162 32.5464 54.3871 30.1607 50.6406 29.9229C51.6359 23.3749 47.4268 16.3937 40.819 14.9246C34.3742 13.1469 27.5064 17.3469 26.1876 23.9103C21.3787 21.667 15.3499 24.2705 13.6057 29.2637C8.83671 27.5817 3.26493 30.086 1.03876 34.5805C-1.50724 39.812 0.914641 46.3424 5.18169 49.7904C8.0575 52.1583 11.5816 53.2343 15.0065 53.4739C28.3757 54.5095 38.3092 43.4571 50.9332 41.3872C51.143 41.3614 51.1362 41.0166 50.9115 41.0157C44.5261 40.7729 38.3699 43.3877 32.5934 45.7077C27.0796 47.9502 21.2763 50.1261 15.3625 49.4828C9.79168 49.0936 4.25706 44.8266 4.37032 38.9947C4.32954 35.6886 7.37343 32.9401 10.6062 32.8014C12.9529 32.6243 15.0785 34.267 15.0436 36.5389C17.7744 34.9483 15.9361 31.6997 17.9357 29.2212C19.8489 26.3531 24.274 26.2239 26.5274 28.7092C28.3476 30.7057 29.9862 31.0324 32.3048 29.932C28.1293 28.4012 29.738 22.5282 32.5748 20.2436C34.5505 18.4863 37.3651 17.997 39.8975 18.6367C42.4943 19.2714 44.7485 21.0463 45.8988 23.4696C47.3154 26.1501 47.903 33.0751 43.5929 32.7471C44.421 34.0214 46.031 34.5284 49.2281 33.7523C53.1576 33.0275 57.1574 36.2816 56.9839 40.3815C57.103 45.2587 52.2325 48.8281 47.4508 47.7028C47.3244 47.6657 47.2501 47.8645 47.3725 47.9185C54.9144 51.3741 62.3617 43.7198 59.2911 36.056Z" fill="#1C73E8"/>
<path d="M59.2911 36.056C57.9162 32.5464 54.3871 30.1607 50.6406 29.9229C51.6359 23.3749 47.4268 16.3937 40.819 14.9246C34.3742 13.1469 27.5064 17.3469 26.1876 23.9103C21.3787 21.667 15.3499 24.2705 13.6057 29.2637C8.83671 27.5817 3.26493 30.086 1.03876 34.5805C-1.50724 39.812 0.914641 46.3424 5.18169 49.7904C8.0575 52.1583 11.5816 53.2343 15.0065 53.4739C28.3757 54.5095 38.3092 43.4571 50.9332 41.3872C51.143 41.3614 51.1362 41.0166 50.9115 41.0157C44.5261 40.7729 38.3699 43.3877 32.5934 45.7077C27.0796 47.9502 21.2763 50.1261 15.3625 49.4828C9.79168 49.0936 4.25706 44.8266 4.37032 38.9947C4.32954 35.6886 7.37343 32.9401 10.6062 32.8014C12.9529 32.6243 15.0785 34.267 15.0436 36.5389C17.7744 34.9483 15.9361 31.6997 17.9357 29.2212C19.8489 26.3531 24.274 26.2239 26.5274 28.7092C28.3476 30.7057 29.9862 31.0324 32.3048 29.932C28.1293 28.4012 29.738 22.5282 32.5748 20.2436C34.5505 18.4863 37.3651 17.997 39.8975 18.6367C42.4943 19.2714 44.7485 21.0463 45.8988 23.4696C47.3154 26.1501 47.903 33.0751 43.5929 32.7471C44.421 34.0214 46.031 34.5284 49.2281 33.7523C53.1576 33.0275 57.1574 36.2816 56.9839 40.3815C57.103 45.2587 52.2325 48.8281 47.4508 47.7028C47.3244 47.6657 47.2501 47.8645 47.3725 47.9185C54.9144 51.3741 62.3617 43.7198 59.2911 36.056Z" fill="url(#paint0_linear_303_434)"/>
<path d="M10.2168 44.4092C23.1516 49.7331 35.767 36.7884 47.8234 38.9543C36.645 30.571 22.193 46.46 10.2168 44.4092Z" fill="#00C960"/>
<path d="M10.2168 44.4092C23.1516 49.7331 35.767 36.7884 47.8234 38.9543C36.645 30.571 22.193 46.46 10.2168 44.4092Z" fill="url(#paint1_linear_303_434)"/>
<path d="M42.1001 10.1329V9.15527e-05L38.8143 1.14715C36.7966 1.8516 35.5027 3.72668 35.5027 5.94696V12.3636C36.2534 12.2531 37.0226 12.196 37.7991 12.196L38.0614 12.1983C39.1677 12.2336 40.264 12.3822 41.3576 12.6418C42.4345 12.9163 43.4665 13.2914 44.4649 13.7666C45.2618 14.1635 46.0102 14.6161 46.7187 15.1225C45.7538 12.6386 43.7442 11.058 42.1001 10.1329ZM14.2245 18.8292V21.7544C12.3372 23.928 12.335 26.5162 12.335 26.5162C12.5257 26.1963 12.7314 25.8855 12.9506 25.5843C14.3469 23.6712 16.221 22.2446 18.3711 21.4554C19.1621 21.1664 19.9829 20.9779 20.821 20.8696V12.8819L17.5352 14.0294C15.5179 14.7339 14.2245 16.6089 14.2245 18.8292ZM24.8638 12.3881V20.5031C25.2489 19.6746 25.6988 18.8849 26.222 18.1334C26.9002 17.1983 27.6572 16.3616 28.5003 15.61L28.5361 15.5788C29.4023 14.8367 30.3572 14.1934 31.3747 13.667L31.4205 13.6434C31.4336 13.6371 31.4477 13.6316 31.4608 13.6253V6.44075L28.175 7.58782C26.1572 8.29273 24.8638 10.1678 24.8638 12.3881Z" fill="#00C960"/>
<path d="M42.1001 10.1329V9.15527e-05L38.8143 1.14715C36.7966 1.8516 35.5027 3.72668 35.5027 5.94696V12.3636C36.2534 12.2531 37.0226 12.196 37.7991 12.196L38.0614 12.1983C39.1677 12.2336 40.264 12.3822 41.3576 12.6418C42.4345 12.9163 43.4665 13.2914 44.4649 13.7666C45.2618 14.1635 46.0102 14.6161 46.7187 15.1225C45.7538 12.6386 43.7442 11.058 42.1001 10.1329ZM14.2245 18.8292V21.7544C12.3372 23.928 12.335 26.5162 12.335 26.5162C12.5257 26.1963 12.7314 25.8855 12.9506 25.5843C14.3469 23.6712 16.221 22.2446 18.3711 21.4554C19.1621 21.1664 19.9829 20.9779 20.821 20.8696V12.8819L17.5352 14.0294C15.5179 14.7339 14.2245 16.6089 14.2245 18.8292ZM24.8638 12.3881V20.5031C25.2489 19.6746 25.6988 18.8849 26.222 18.1334C26.9002 17.1983 27.6572 16.3616 28.5003 15.61L28.5361 15.5788C29.4023 14.8367 30.3572 14.1934 31.3747 13.667L31.4205 13.6434C31.4336 13.6371 31.4477 13.6316 31.4608 13.6253V6.44075L28.175 7.58782C26.1572 8.29273 24.8638 10.1678 24.8638 12.3881Z" fill="url(#paint2_linear_303_434)"/>
<defs>
<linearGradient id="paint0_linear_303_434" x1="31.5949" y1="64.284" x2="29.3668" y2="29.6235" gradientUnits="userSpaceOnUse">
<stop stop-color="#7B728C"/>
<stop offset="1" stop-color="#E1D9FF" stop-opacity="0"/>
</linearGradient>
<linearGradient id="paint1_linear_303_434" x1="29.3839" y1="47.3449" x2="28.9247" y2="40.2021" gradientUnits="userSpaceOnUse">
<stop stop-color="#7B728C"/>
<stop offset="1" stop-color="#E1D9FF" stop-opacity="0"/>
</linearGradient>
<linearGradient id="paint2_linear_303_434" x1="30.3073" y1="32.9519" x2="28.8551" y2="10.3608" gradientUnits="userSpaceOnUse">
<stop stop-color="#7B728C"/>
<stop offset="1" stop-color="#E1D9FF" stop-opacity="0"/>
</linearGradient>
</defs>
</svg>
