<svg width="993" height="407" viewBox="0 0 993 407" fill="none" xmlns="http://www.w3.org/2000/svg">
<path d="M676.854 309.401H344.599C342.971 309.401 341.615 308.045 341.615 306.418V107.064C341.615 96.4863 350.023 88.0782 360.601 88.0782H660.852C671.43 88.0782 679.838 96.4863 679.838 107.064V306.418C679.838 308.045 678.482 309.401 676.854 309.401Z" fill="#DDE5E9"/>
<path d="M596.841 63.3963C597.655 60.4128 599.554 57.9717 601.995 56.3444C604.165 54.9882 606.606 54.4457 609.047 54.717C609.589 54.717 610.132 54.9882 610.674 54.9882C616.912 56.6156 620.71 62.8539 619.082 69.0921C617.455 75.3304 611.216 79.1276 604.978 77.5002C599.011 75.8728 595.214 69.6346 596.841 63.3963Z" fill="#E3EDFF"/>
<path d="M542.325 58.7854V73.703C542.325 74.2455 542.596 74.5167 543.138 74.788L554.801 78.8564C556.157 84.8234 558.598 90.248 561.582 95.1301L556.157 106.251C555.886 106.522 556.157 107.064 556.429 107.335L567.007 117.913C567.278 118.185 567.82 118.185 568.091 118.185L579.212 112.76C584.094 115.744 589.519 118.185 595.486 119.541L599.554 131.204C599.825 131.746 600.097 132.017 600.639 132.017H615.557C616.099 132.017 616.37 131.746 616.642 131.204L620.71 119.541C626.677 118.185 632.102 115.744 636.984 112.76L648.104 118.185C648.375 118.456 648.918 118.185 649.189 117.913L659.767 107.335C660.038 107.064 660.038 106.522 660.038 106.251L654.614 95.1301C657.597 90.248 660.038 84.8234 661.394 78.8564L673.057 74.788C673.6 74.5167 673.871 74.2455 673.871 73.703V58.7854C673.871 58.243 673.6 57.9718 673.057 57.7005L661.394 53.6321C660.038 47.6651 657.597 42.2405 654.614 37.3584L660.038 26.238C660.309 25.9667 660.038 25.4243 659.767 25.1531L649.189 14.5751C648.918 14.3039 648.375 14.3039 648.104 14.3039L636.984 19.7285C632.102 16.745 626.677 14.3039 620.71 12.9477L616.642 1.28489C616.37 0.742429 616.099 0.471191 615.557 0.471191H600.639C600.097 0.471191 599.825 0.742429 599.554 1.28489L595.486 12.9477C589.519 14.3039 584.094 16.745 579.212 19.7285L568.091 14.3039C567.82 14.0327 567.278 14.3039 567.007 14.5751L556.429 25.1531C556.157 25.4243 556.157 25.9667 556.157 26.238L561.582 37.3584C558.598 42.2405 556.157 47.6651 554.801 53.6321L543.138 57.7005C542.596 57.9718 542.325 58.243 542.325 58.7854ZM581.653 39.7994C588.705 32.7475 597.927 28.9502 607.691 28.9502C628.033 28.9502 644.578 45.4952 644.578 65.8374C644.578 67.1936 644.578 68.2785 644.307 69.6346C643.764 75.0592 642.137 80.2126 639.154 84.8234C638.882 85.3659 638.34 85.3659 638.069 85.0947C637.797 84.8234 637.526 84.5522 637.526 84.281V84.0098C640.238 79.6701 641.866 74.5167 642.408 69.6346C642.408 68.5497 642.679 67.1936 642.679 66.1086C642.679 46.5801 626.948 30.8489 607.42 30.8489C597.927 30.8489 589.247 34.3748 582.467 41.1556C576.771 46.8514 573.245 54.4458 572.431 62.3114C572.431 63.3963 572.16 64.7525 572.16 65.8374C572.16 72.8894 574.059 79.1276 577.584 84.8234C583.823 94.5877 594.943 101.097 607.42 101.097C609.861 101.097 612.573 100.826 615.014 100.284C615.557 100.284 615.828 100.555 616.099 100.826V101.097C616.099 101.368 615.828 101.911 615.285 101.911C615.014 101.911 615.014 101.911 614.743 101.911H614.472C612.573 102.182 610.674 102.453 608.505 102.453C608.233 102.453 607.691 102.453 607.42 102.453C606.064 102.453 604.979 102.453 603.622 102.182C595.214 101.368 587.349 97.5712 581.382 91.6042C574.33 84.5522 570.533 75.3304 570.533 65.5662C570.533 64.21 570.533 63.1251 570.804 61.769C571.889 53.6321 575.686 45.7664 581.653 39.7994ZM606.606 81.2975C605.792 81.2975 605.25 81.0262 604.436 81.0262C596.299 78.8564 591.417 70.7195 593.587 62.8539C594.672 59.0567 597.113 55.8019 600.368 53.6321C603.894 51.4623 607.962 50.9198 611.759 52.0047C619.896 54.1745 624.778 62.3114 622.609 70.1771C620.71 77.229 613.658 81.8399 606.606 81.2975Z" fill="#E3EDFF"/>
<path d="M663.293 123.338V133.373C663.293 133.645 663.564 133.916 663.835 133.916L671.701 136.628C672.515 140.425 674.142 144.223 676.312 147.477L672.786 155.072C672.786 155.343 672.786 155.614 672.786 155.885L679.838 162.937C680.109 163.209 680.38 163.209 680.652 162.937L688.246 159.411C691.501 161.581 695.298 162.937 699.095 164.022L701.808 171.888C701.808 172.159 702.079 172.43 702.35 172.43H712.385C712.657 172.43 712.928 172.159 712.928 171.888L715.64 164.022C719.437 163.209 723.235 161.581 726.489 159.411L734.084 162.937C734.355 162.937 734.626 162.937 734.897 162.937L741.949 155.885C742.221 155.614 742.221 155.343 741.949 155.072L738.152 147.749C740.322 144.494 741.678 140.697 742.763 136.899L750.629 134.187C750.9 134.187 751.171 133.916 751.171 133.645V123.609C751.171 123.338 750.9 123.067 750.629 123.067L742.763 120.354C741.949 116.557 740.322 112.76 738.152 109.505L741.678 101.911C741.678 101.64 741.678 101.368 741.678 101.097L734.626 94.0453C734.355 93.774 734.084 93.774 733.813 94.0453L726.218 97.5712C722.963 95.4014 719.166 94.0453 715.369 92.9604L712.657 85.0947C712.657 84.8235 712.385 84.5522 712.114 84.5522H702.079C701.808 84.5522 701.536 84.8235 701.536 85.0947L698.824 92.9604C695.027 93.7741 691.23 95.4014 687.975 97.5712L680.38 94.0453C680.109 94.0453 679.838 94.0453 679.567 94.0453L672.515 101.097C672.244 101.368 672.244 101.64 672.515 101.911L676.041 109.505C673.871 112.76 672.515 116.557 671.43 120.354L663.564 123.067C663.293 122.796 663.293 123.067 663.293 123.338ZM689.06 110.048C693.942 105.166 700.18 102.453 707.232 102.453C714.013 102.453 720.522 105.166 725.133 110.048C730.015 114.93 732.728 121.168 732.728 128.22C732.728 129.034 732.728 129.848 732.728 130.932C732.456 134.73 731.1 138.256 729.202 141.51C728.93 142.053 728.117 142.324 727.303 142.053C726.761 141.782 726.489 141.239 726.761 140.697C726.761 140.425 726.761 140.425 727.032 140.154C728.659 137.171 729.744 134.187 730.287 130.661C730.287 129.847 730.287 129.034 730.287 128.22C730.287 122.253 727.846 116.286 723.506 112.218C719.166 107.878 713.47 105.437 707.503 105.437C701.536 105.437 695.569 107.878 691.501 112.218C687.704 116.015 685.534 120.897 684.991 126.05C684.991 126.864 684.991 127.678 684.991 128.491C684.991 134.458 687.432 140.425 691.772 144.494C693.128 145.85 695.027 146.935 696.654 148.02C699.909 149.918 703.706 150.732 707.503 150.732H706.418V151.275C709.131 151.275 710.487 151.275 711.843 150.732C712.657 150.461 713.742 151.003 713.742 151.817C713.742 152.088 714.013 152.088 714.013 152.36C714.013 152.902 713.742 153.444 712.928 153.444C712.928 153.444 712.928 153.444 712.657 153.444C711.029 153.716 709.131 153.987 707.503 153.987C706.69 153.987 705.876 153.987 704.791 153.987C692.043 152.631 682.008 141.782 682.008 128.491C682.008 127.678 682.008 126.864 682.279 125.779C682.279 119.812 684.72 114.387 689.06 110.048ZM712.385 137.171C710.487 138.256 708.317 138.798 706.147 138.527C705.605 138.527 705.062 138.256 704.52 138.256C701.808 137.713 699.638 135.815 698.282 133.645C696.925 131.204 696.383 128.491 697.197 125.779C698.553 120.354 704.249 117.1 709.673 118.456C715.098 119.812 718.353 125.508 716.996 130.932C716.454 133.645 714.827 135.815 712.385 137.171Z" fill="#E3EDFF"/>
<path d="M700.723 132.289C699.638 130.661 699.366 128.491 699.909 126.593C700.723 122.795 704.249 120.626 708.046 120.897C708.317 120.897 708.859 120.897 709.131 121.168C713.199 122.253 715.64 126.321 714.555 130.39C714.013 132.289 712.928 133.916 711.029 135.001C709.402 136.086 707.232 136.357 705.333 135.814C703.435 135.272 701.808 133.916 700.723 132.289Z" fill="#E3EDFF"/>
<path d="M344.598 318.623C337.817 318.623 331.308 313.198 331.308 306.418V107.064C331.308 91.333 344.869 79.9414 360.6 79.9414H660.851C676.582 79.9414 689.33 91.333 689.33 107.064V306.418C689.33 313.198 683.634 318.623 676.853 318.623H344.598Z" fill="white"/>
<path d="M311.509 71.262H252.381C250.754 71.262 249.397 69.9058 249.397 68.2785V36.2734C249.397 34.6461 250.754 33.2899 252.381 33.2899H311.509C313.136 33.2899 314.492 34.6461 314.492 36.2734V68.5497C314.492 70.1771 313.136 71.262 311.509 71.262ZM252.381 34.6461C251.567 34.6461 250.754 35.4597 250.754 36.2734V68.5497C250.754 69.3634 251.567 70.1771 252.381 70.1771H311.509C312.323 70.1771 313.136 69.3634 313.136 68.5497V36.2734C313.136 35.4597 312.323 34.6461 311.509 34.6461H252.381Z" fill="#E3EDFF"/>
<path d="M313.679 46.8515H249.94C249.669 46.8515 249.397 46.5802 249.397 46.309V41.4269C249.397 41.1556 249.669 40.8844 249.94 40.8844H313.679C313.95 40.8844 314.221 41.1556 314.221 41.4269V46.309C314.492 46.5802 314.221 46.8515 313.679 46.8515ZM250.754 45.4953H313.136V41.9693H250.754V45.4953Z" fill="#E3EDFF"/>
<path d="M296.592 63.125C294.151 63.125 291.981 60.9551 291.981 58.5141C291.981 56.073 294.151 53.9032 296.592 53.9032C297.677 53.9032 298.762 54.4457 299.847 55.2593C299.847 55.2593 300.118 55.5306 300.118 55.8018C300.118 56.073 300.118 56.073 299.847 56.3443C299.304 56.8867 298.762 57.7004 298.762 58.7853C298.762 59.599 299.033 60.4127 299.847 61.2264C299.847 61.2264 300.118 61.4976 300.118 61.7688C300.118 62.0401 300.118 62.0401 299.847 62.3113C299.033 62.8538 297.948 63.125 296.592 63.125ZM296.592 55.5306C294.693 55.5306 293.337 56.8867 293.337 58.7853C293.337 60.6839 294.693 62.0401 296.592 62.0401C297.134 62.0401 297.948 61.7688 298.49 61.4976C297.948 60.6839 297.677 59.8702 297.677 58.7853C297.677 57.7004 297.948 56.8867 298.49 56.073C297.948 55.5306 297.406 55.5306 296.592 55.5306Z" fill="#E3EDFF"/>
<path d="M302.016 63.125C299.575 63.125 297.405 60.9551 297.405 58.5141C297.405 56.073 299.304 53.9032 302.016 53.9032C304.457 53.9032 306.627 55.8018 306.627 58.5141C306.627 61.2264 304.728 63.125 302.016 63.125ZM302.016 55.5306C300.118 55.5306 298.761 56.8867 298.761 58.7853C298.761 60.6839 300.118 62.0401 302.016 62.0401C303.915 62.0401 305.271 60.6839 305.271 58.7853C305.542 56.8867 303.915 55.5306 302.016 55.5306Z" fill="#E3EDFF"/>
<path d="M280.046 54.1746H253.737C253.466 54.1746 253.194 53.9034 253.194 53.6322C253.194 53.361 253.466 53.0897 253.737 53.0897H280.046C280.317 53.0897 280.588 53.361 280.588 53.6322C280.588 53.9034 280.317 54.1746 280.046 54.1746Z" fill="#E3EDFF"/>
<path d="M280.046 61.4976H253.737C253.466 61.4976 253.194 61.2264 253.194 60.9552C253.194 60.6839 253.466 60.4127 253.737 60.4127H280.046C280.317 60.4127 280.588 60.6839 280.588 60.9552C280.588 61.2264 280.317 61.4976 280.046 61.4976Z" fill="#E3EDFF"/>
<path d="M257.806 38.1721H254.551C254.28 38.1721 254.009 37.9009 254.009 37.6296C254.009 37.3584 254.28 37.0872 254.551 37.0872H257.806C258.077 37.0872 258.348 37.3584 258.348 37.6296C258.348 37.9009 258.077 38.1721 257.806 38.1721Z" fill="#E3EDFF"/>
<path d="M264.587 38.1721H261.332C261.061 38.1721 260.79 37.9009 260.79 37.6296C260.79 37.3584 261.061 37.0872 261.332 37.0872H264.587C264.858 37.0872 265.129 37.3584 265.129 37.6296C265.4 37.9009 265.129 38.1721 264.587 38.1721Z" fill="#E3EDFF"/>
<path d="M271.638 38.1721H268.383C268.112 38.1721 267.84 37.9009 267.84 37.6296C267.84 37.3584 268.112 37.0872 268.383 37.0872H271.638C271.909 37.0872 272.18 37.3584 272.18 37.6296C272.18 37.9009 271.909 38.1721 271.638 38.1721Z" fill="#E3EDFF"/>
<path d="M250.211 61.7689H242.888C241.26 61.7689 239.904 60.4128 239.904 58.7854V26.7804C239.904 25.153 241.26 23.7969 242.888 23.7969H302.016C303.643 23.7969 304.999 25.153 304.999 26.7804V34.1036C304.999 34.3748 304.728 34.646 304.457 34.646H252.652C251.838 34.646 251.025 35.4597 251.025 36.2734V61.2265C250.753 61.4977 250.482 61.7689 250.211 61.7689ZM242.888 25.153C242.074 25.153 241.26 25.9667 241.26 26.7804V59.0567C241.26 59.8703 242.074 60.684 242.888 60.684H249.669V36.2734C249.669 34.646 251.025 33.2899 252.652 33.2899H303.914V26.7804C303.914 25.9667 303.101 25.153 302.287 25.153H242.888Z" fill="#E3EDFF"/>
<path d="M6.64674 180.838C3.39199 180.838 0.679688 178.126 0.679688 174.871C0.679688 171.617 3.39199 168.904 6.64674 168.904C9.90149 168.904 12.6138 171.617 12.6138 174.871C12.6138 178.126 9.90149 180.838 6.64674 180.838ZM6.64674 171.345C4.47691 171.345 2.84953 172.973 2.84953 175.143C2.84953 177.313 4.47691 178.94 6.64674 178.94C8.81657 178.94 10.4439 177.313 10.4439 175.143C10.4439 172.973 8.81657 171.345 6.64674 171.345Z" fill="#E3EDFF"/>
<path d="M247.769 259.495C244.515 259.495 241.802 256.783 241.802 253.528C241.802 250.273 244.515 247.561 247.769 247.561C251.024 247.561 253.736 250.273 253.736 253.528C253.736 256.783 251.024 259.495 247.769 259.495ZM247.769 250.002C245.599 250.002 243.972 251.629 243.972 253.799C243.972 255.969 245.599 257.596 247.769 257.596C249.939 257.596 251.567 255.969 251.567 253.799C251.567 251.629 249.939 250.002 247.769 250.002Z" fill="#E3EDFF"/>
<path d="M184.573 318.623C184.03 318.623 183.488 318.08 183.488 317.538V302.62C183.488 302.078 184.03 301.535 184.573 301.535C185.115 301.535 185.658 302.078 185.658 302.62V317.538C185.658 318.08 185.115 318.623 184.573 318.623Z" fill="#E3EDFF"/>
<path d="M191.897 311.3H176.979C176.437 311.3 175.894 310.757 175.894 310.215C175.894 309.672 176.437 309.13 176.979 309.13H191.897C192.439 309.13 192.981 309.672 192.981 310.215C192.981 310.757 192.439 311.3 191.897 311.3Z" fill="#E3EDFF"/>
<path d="M151.212 102.996C150.669 102.996 150.127 102.453 150.127 101.911V86.9934C150.127 86.4509 150.669 85.9084 151.212 85.9084C151.754 85.9084 152.297 86.4509 152.297 86.9934V101.911C152.297 102.453 152.026 102.996 151.212 102.996Z" fill="#E3EDFF"/>
<path d="M158.806 95.4013H143.888C143.346 95.4013 142.803 94.8588 142.803 94.3164C142.803 93.7739 143.346 93.2314 143.888 93.2314H158.806C159.348 93.2314 159.891 93.7739 159.891 94.3164C159.891 94.8588 159.348 95.4013 158.806 95.4013Z" fill="#E3EDFF"/>
<path d="M102.389 20.8132C101.847 20.8132 101.304 20.2708 101.304 19.7283V4.81075C101.304 4.26829 101.847 3.72583 102.389 3.72583C102.932 3.72583 103.474 4.26829 103.474 4.81075V19.7283C103.203 20.2708 102.932 20.8132 102.389 20.8132Z" fill="#E3EDFF"/>
<path d="M109.713 13.4903H94.7954C94.2529 13.4903 93.7104 12.9478 93.7104 12.4054C93.7104 11.8629 94.2529 11.3204 94.7954 11.3204H109.713C110.255 11.3204 110.798 11.8629 110.798 12.4054C110.798 12.9478 110.255 13.4903 109.713 13.4903Z" fill="#E3EDFF"/>
<path d="M188.37 263.021H40.0078C36.7531 263.021 34.312 260.308 34.312 257.325C34.312 254.341 37.0243 251.629 40.0078 251.629H188.37C191.625 251.629 194.066 254.341 194.066 257.325C194.066 260.308 191.625 263.021 188.37 263.021ZM40.0078 253.528C38.1092 253.528 36.4819 255.155 36.4819 257.054C36.4819 258.952 38.1092 260.58 40.0078 260.58H188.37C190.269 260.58 191.896 258.952 191.896 257.054C191.896 255.155 190.269 253.528 188.37 253.528H40.0078Z" fill="#E3EDFF"/>
<path d="M254.822 174.872H200.033C198.677 174.872 197.592 173.787 197.592 172.43C197.592 171.074 198.677 169.989 200.033 169.989H254.822C256.178 169.989 257.263 171.074 257.263 172.43C257.263 173.787 256.178 174.872 254.822 174.872Z" fill="#E3EDFF"/>
<path d="M133.311 220.438H91.2702C89.914 220.438 88.8291 219.353 88.8291 217.997C88.8291 216.641 89.914 215.556 91.2702 215.556H133.311C134.667 215.556 135.752 216.641 135.752 217.997C135.752 219.353 134.667 220.438 133.311 220.438Z" fill="#E3EDFF"/>
<path d="M111.884 191.416C111.613 191.416 111.07 191.145 111.07 190.603V175.143C111.07 174.871 111.342 174.329 111.884 174.329H127.344C127.615 174.329 127.615 174.329 127.887 174.6C128.158 174.871 128.158 175.414 127.887 175.685L112.426 191.145C112.155 191.416 112.155 191.416 111.884 191.416ZM112.698 175.956V189.247L125.717 175.956H112.698Z" fill="#E3EDFF"/>
<path d="M111.884 191.416H65.5036C65.2324 191.416 64.6899 191.145 64.6899 190.603V106.25C64.6899 105.979 64.9612 105.437 65.5036 105.437H127.344C127.615 105.437 128.158 105.708 128.158 106.25V174.871C128.158 175.143 127.886 175.685 127.344 175.685H112.426V190.603C112.698 191.145 112.155 191.416 111.884 191.416ZM66.0461 190.06H111.07V175.143C111.07 174.871 111.341 174.329 111.884 174.329H126.801V107.064H66.3173V190.06H66.0461ZM82.8623 175.414C81.7774 175.414 80.6925 174.871 80.15 173.786L77.9802 169.989C77.4377 169.176 77.4377 168.362 77.7089 167.548C77.9802 166.735 78.5226 165.921 79.0651 165.65L105.103 149.918C105.103 149.918 105.374 149.918 105.646 149.918L112.969 150.732C113.24 150.732 113.24 151.003 113.511 151.003C113.511 151.274 113.782 151.274 113.511 151.546L111.07 158.869C111.07 159.14 110.799 159.14 110.799 159.14L87.202 173.515L84.4897 174.871C83.9472 175.143 83.4048 175.414 82.8623 175.414ZM105.374 151.274L79.6075 166.735C79.0651 167.006 78.7939 167.277 78.7939 167.819C78.7939 168.362 78.7939 168.904 79.0651 169.176L81.2349 172.973C81.7774 173.786 82.8623 174.058 83.676 173.515L85.8458 172.159L109.172 158.055L111.341 151.817L105.374 151.274Z" fill="#E3EDFF"/>
<path d="M109.985 159.14C109.714 159.14 109.443 159.14 109.443 158.869L104.561 151.003C104.29 150.732 104.29 150.461 104.561 150.19C104.832 149.918 104.832 149.918 105.103 149.918L112.426 150.732C112.698 150.732 112.698 151.003 112.969 151.003C112.969 151.274 113.24 151.274 112.969 151.546L110.528 158.869C110.528 159.14 110.257 159.14 109.985 159.14ZM106.459 151.274L109.714 156.699L111.342 151.817L106.459 151.274Z" fill="#E3EDFF"/>
<path d="M86.1168 173.515C85.8456 173.515 85.5744 173.515 85.5744 173.244L83.1333 169.176C83.1333 168.904 83.1333 168.633 83.1333 168.362L83.4045 168.091L107.001 153.716C107.273 153.716 107.273 153.716 107.544 153.716C107.815 153.716 107.815 153.987 108.086 153.987L110.527 158.055C110.799 158.326 110.527 158.869 110.256 159.14L86.6593 173.515C86.3881 173.515 86.388 173.515 86.1168 173.515ZM84.7607 169.176L86.388 171.888L108.9 158.326L107.273 155.614L84.7607 169.176Z" fill="#E3EDFF"/>
<path d="M83.9474 169.718C83.6762 169.718 83.4049 169.718 83.4049 169.447L80.9639 165.379C80.9639 165.107 80.9639 165.107 80.9639 164.836C80.9639 164.565 81.2351 164.565 81.2351 164.294L104.832 149.918C105.103 149.647 105.646 149.918 105.917 150.19L108.358 154.258C108.358 154.529 108.358 154.529 108.358 154.801C108.358 155.072 108.087 155.072 108.087 155.343L84.4899 169.718C83.9474 169.447 83.9474 169.718 83.9474 169.718ZM82.32 165.107L83.9474 167.82L106.459 154.258L104.832 151.546L82.32 165.107Z" fill="#E3EDFF"/>
<path d="M82.8628 175.414C81.7778 175.414 80.6929 174.871 80.1505 173.786L77.9806 169.989C77.4382 169.175 77.4382 168.362 77.7094 167.548C77.9806 166.734 78.5231 165.921 79.0656 165.649L81.2354 164.293C81.5066 164.022 81.7778 164.293 82.0491 164.293L86.9312 172.159C87.2024 172.43 86.9312 172.973 86.66 173.244L84.4901 174.871C83.9477 175.142 83.4052 175.414 82.8628 175.414ZM81.2354 165.921L79.608 167.006C79.0655 167.277 78.7943 167.548 78.7943 168.09C78.7943 168.633 78.7943 169.175 79.0656 169.447L81.2354 173.244C81.7779 174.057 82.8628 174.329 83.6764 173.786L85.3038 172.701L83.4052 169.718L81.2354 165.921Z" fill="#E3EDFF"/>
<path d="M111.884 191.416H65.5036C65.2324 191.416 64.6899 191.145 64.6899 190.603V106.25C64.6899 105.979 64.9612 105.437 65.5036 105.437H127.344C127.615 105.437 128.158 105.708 128.158 106.25V174.871C128.158 175.143 127.886 175.685 127.344 175.685H112.426V190.603C112.698 191.145 112.155 191.416 111.884 191.416ZM66.0461 190.06H111.07V175.143C111.07 174.871 111.341 174.329 111.884 174.329H126.801V107.064H66.3173V190.06H66.0461Z" fill="#E3EDFF"/>
<path d="M111.884 191.417C111.613 191.417 111.613 191.416 111.342 191.145C111.07 190.874 111.07 190.332 111.342 190.06L126.802 174.6C127.073 174.329 127.615 174.329 127.887 174.6C128.158 174.872 128.158 175.414 127.887 175.685L112.427 191.145C112.155 191.416 112.155 191.417 111.884 191.417Z" fill="#E3EDFF"/>
<path d="M116.766 122.795H74.9968C74.7256 122.795 74.1831 122.524 74.1831 121.982C74.1831 121.711 74.4543 121.168 74.9968 121.168H116.766C117.037 121.168 117.58 121.439 117.58 121.982C117.58 122.524 117.309 122.795 116.766 122.795Z" fill="#E3EDFF"/>
<path d="M116.766 133.916H74.9968C74.7256 133.916 74.1831 133.645 74.1831 133.102C74.1831 132.56 74.4543 132.288 74.9968 132.288H116.766C117.037 132.288 117.58 132.56 117.58 133.102C117.58 133.645 117.309 133.916 116.766 133.916Z" fill="#E3EDFF"/>
<path d="M116.766 145.036H74.9968C74.7256 145.036 74.1831 144.765 74.1831 144.222C74.1831 143.68 74.4543 143.409 74.9968 143.409H116.766C117.037 143.409 117.58 143.68 117.58 144.222C117.58 144.765 117.309 145.036 116.766 145.036Z" fill="#E3EDFF"/>
<path d="M82.8628 175.414C81.7778 175.414 80.6929 174.871 80.1505 173.786L77.9806 169.989C77.4382 169.176 77.4382 168.362 77.7094 167.548C77.9806 166.735 78.5231 165.921 79.0656 165.65L105.104 149.918C105.104 149.918 105.375 149.918 105.646 149.918L112.969 150.732C113.24 150.732 113.24 151.003 113.512 151.003C113.512 151.274 113.783 151.274 113.512 151.546L111.071 158.869C111.071 159.14 110.799 159.14 110.799 159.14L87.2024 173.515L84.4901 174.871C83.9477 175.143 83.4052 175.414 82.8628 175.414ZM105.375 151.274L79.608 166.735C79.0655 167.006 78.7943 167.277 78.7943 167.819C78.7943 168.362 78.7943 168.904 79.0656 169.176L81.2354 172.973C81.7779 173.786 82.8628 174.058 83.6764 173.515L85.8463 172.159L109.172 158.055L111.342 151.817L105.375 151.274Z" fill="#E3EDFF"/>
<path d="M86.1177 173.515C85.8465 173.515 85.8465 173.515 85.5753 173.244C85.5753 173.244 85.5753 173.244 85.304 172.973L80.4219 165.107C80.1507 164.836 80.4219 164.293 80.6931 164.022C80.9644 163.751 81.5068 164.022 81.7781 164.294L86.6602 172.159C86.6602 172.159 86.9314 172.43 86.9314 172.702C86.9314 173.244 86.6602 173.515 86.1177 173.515Z" fill="#E3EDFF"/>
<path d="M109.986 159.14C109.714 159.14 109.443 159.14 109.443 158.869L104.561 151.003C104.29 150.732 104.561 150.19 104.832 149.918C105.104 149.647 105.646 149.918 105.917 150.19L110.799 158.055C111.071 158.327 110.799 158.869 110.528 159.14C110.257 159.14 109.986 159.14 109.986 159.14Z" fill="#E3EDFF"/>
<path d="M83.9468 169.718C83.6756 169.718 83.4043 169.718 83.4043 169.447C83.1331 169.175 83.4043 168.633 83.6756 168.362L107.273 153.987C107.544 153.715 108.086 153.987 108.357 154.258C108.629 154.529 108.357 155.072 108.086 155.343L84.4893 169.718C83.9468 169.718 83.9468 169.718 83.9468 169.718Z" fill="#E3EDFF"/>
<path d="M742.22 211.759C738.966 211.759 736.253 209.046 736.253 205.791C736.253 202.537 738.966 199.824 742.22 199.824C745.475 199.824 748.188 202.537 748.188 205.791C747.916 209.317 745.475 211.759 742.22 211.759ZM742.22 202.266C740.051 202.266 738.423 203.893 738.423 206.063C738.423 208.233 740.051 209.86 742.22 209.86C744.39 209.86 746.018 208.233 746.018 206.063C745.746 203.893 744.119 202.266 742.22 202.266Z" fill="#E3EDFF"/>
<path d="M983.343 290.686C980.088 290.686 977.376 287.974 977.376 284.719C977.376 281.464 980.088 278.752 983.343 278.752C986.598 278.752 989.31 281.464 989.31 284.719C989.039 287.974 986.598 290.686 983.343 290.686ZM983.343 280.922C981.173 280.922 979.546 282.549 979.546 284.719C979.546 286.889 981.173 288.516 983.343 288.516C985.513 288.516 987.14 286.889 987.14 284.719C986.869 282.549 985.242 280.922 983.343 280.922Z" fill="#E3EDFF"/>
<path d="M919.876 349.543C919.334 349.543 918.792 349.001 918.792 348.458V333.54C918.792 332.998 919.334 332.456 919.876 332.456C920.419 332.456 920.961 332.998 920.961 333.54V348.458C920.961 349.272 920.419 349.543 919.876 349.543Z" fill="#E3EDFF"/>
<path d="M927.47 342.22H912.553C912.01 342.22 911.468 341.677 911.468 341.135C911.468 340.593 912.01 340.05 912.553 340.05H927.47C928.013 340.05 928.555 340.593 928.555 341.135C928.555 341.677 928.013 342.22 927.47 342.22Z" fill="#E3EDFF"/>
<path d="M886.784 133.916C886.242 133.916 885.699 133.373 885.699 132.831V117.913C885.699 117.371 886.242 116.828 886.784 116.828C887.327 116.828 887.869 117.371 887.869 117.913V132.831C887.869 133.373 887.327 133.916 886.784 133.916Z" fill="#E3EDFF"/>
<path d="M894.108 126.593H879.19C878.648 126.593 878.105 126.05 878.105 125.508C878.105 124.965 878.648 124.423 879.19 124.423H894.108C894.65 124.423 895.193 124.965 895.193 125.508C895.193 126.05 894.65 126.593 894.108 126.593Z" fill="#E3EDFF"/>
<path d="M837.693 52.0045C837.15 52.0045 836.608 51.4621 836.608 50.9196V36.002C836.608 35.4596 837.15 34.9171 837.693 34.9171C838.235 34.9171 838.778 35.4596 838.778 36.002V50.9196C838.778 51.4621 838.235 52.0045 837.693 52.0045Z" fill="#E3EDFF"/>
<path d="M845.015 44.41H830.369C829.827 44.41 829.284 43.8675 829.284 43.325C829.284 42.7826 829.827 42.2401 830.369 42.2401H845.287C845.829 42.2401 846.372 42.7826 846.372 43.325C846.1 44.1387 845.558 44.41 845.015 44.41Z" fill="#E3EDFF"/>
<path d="M923.672 293.941H775.31C772.055 293.941 769.614 291.229 769.614 288.245C769.614 285.262 772.327 282.549 775.31 282.549H923.672C926.927 282.549 929.368 285.262 929.368 288.245C929.368 291.229 926.927 293.941 923.672 293.941ZM775.581 284.448C773.683 284.448 772.055 286.075 772.055 287.974C772.055 289.873 773.683 291.5 775.581 291.5H923.944C925.842 291.5 927.47 289.873 927.47 287.974C927.47 286.075 925.842 284.448 923.944 284.448H775.581Z" fill="#E3EDFF"/>
<path d="M990.395 206.063H935.607C934.251 206.063 933.166 204.978 933.166 203.622C933.166 202.266 934.251 201.181 935.607 201.181H990.395C991.752 201.181 992.836 202.266 992.836 203.622C992.565 204.978 991.48 206.063 990.395 206.063Z" fill="#E3EDFF"/>
<path d="M868.613 251.358H826.572C825.216 251.358 824.131 250.273 824.131 248.917C824.131 247.561 825.216 246.476 826.572 246.476H868.613C869.969 246.476 871.054 247.561 871.054 248.917C871.054 250.273 869.969 251.358 868.613 251.358Z" fill="#E3EDFF"/>
<path d="M847.728 406.772H779.921C778.022 406.772 776.666 405.416 776.666 403.518V357.68C776.666 355.781 778.022 354.425 779.921 354.425H847.728C849.627 354.425 850.983 355.781 850.983 357.68V403.518C850.983 405.416 849.627 406.772 847.728 406.772ZM779.921 355.781C778.836 355.781 778.022 356.595 778.022 357.68V403.518C778.022 404.602 778.836 405.416 779.921 405.416H847.728C848.813 405.416 849.627 404.602 849.627 403.518V357.68C849.627 356.595 848.813 355.781 847.728 355.781H779.921Z" fill="#E3EDFF"/>
<path d="M850.441 365.003H777.48C777.209 365.003 776.938 364.732 776.938 364.46C776.938 364.189 777.209 363.918 777.48 363.918H850.441C850.712 363.918 850.983 364.189 850.983 364.46C850.983 364.732 850.712 365.003 850.441 365.003Z" fill="#E3EDFF"/>
<path d="M784.261 362.291H780.464C780.193 362.291 779.921 362.019 779.921 361.748V357.951C779.921 357.68 780.193 357.408 780.464 357.408H784.261C784.532 357.408 784.804 357.68 784.804 357.951V361.748C784.804 362.019 784.532 362.291 784.261 362.291ZM781.006 361.206H783.719V358.493H781.006V361.206Z" fill="#E3EDFF"/>
<path d="M791.855 362.291H788.058C787.786 362.291 787.515 362.019 787.515 361.748V357.951C787.515 357.68 787.786 357.408 788.058 357.408H791.855C792.126 357.408 792.397 357.68 792.397 357.951V361.748C792.397 362.019 792.126 362.291 791.855 362.291ZM788.6 361.206H791.312V358.493H788.6V361.206Z" fill="#E3EDFF"/>
<path d="M799.449 362.291H795.651C795.38 362.291 795.109 362.019 795.109 361.748V357.951C795.109 357.68 795.38 357.408 795.651 357.408H799.449C799.72 357.408 799.991 357.68 799.991 357.951V361.748C799.991 362.019 799.72 362.291 799.449 362.291ZM796.194 361.206H798.906V358.493H796.194V361.206Z" fill="#E3EDFF"/>
<path d="M804.602 398.364C804.331 398.364 804.331 398.364 804.331 398.093L788.871 385.345C788.6 385.345 788.6 385.074 788.6 384.803C788.6 384.532 788.6 384.532 788.871 384.26L803.246 372.326C803.517 372.055 803.788 372.055 804.06 372.326C804.331 372.597 804.331 372.869 804.06 373.14L790.227 384.803L804.873 397.008C805.145 397.279 805.145 397.551 804.873 397.822C804.873 398.364 804.602 398.364 804.602 398.364Z" fill="#E3EDFF"/>
<path d="M823.317 398.364C823.045 398.364 823.045 398.364 822.774 398.093C822.503 397.822 822.503 397.551 822.774 397.279L837.421 385.074L823.588 373.411C823.317 373.14 823.317 372.869 823.588 372.597C823.859 372.326 824.13 372.326 824.402 372.597L838.777 384.532C839.048 384.532 839.048 384.803 839.048 385.074C839.048 385.345 839.048 385.345 838.777 385.616L823.588 398.364C823.588 398.364 823.588 398.364 823.317 398.364Z" fill="#E3EDFF"/>
<path d="M806.23 401.076H805.959C805.688 400.805 805.416 400.534 805.688 400.263L820.876 369.885C821.148 369.614 821.419 369.343 821.69 369.614C821.961 369.885 822.233 370.156 821.961 370.428L806.772 400.805C806.772 401.076 806.501 401.076 806.23 401.076Z" fill="#E3EDFF"/>
<path d="M660.851 88.0782H360.6C350.022 88.0782 342.157 96.4863 342.157 107.064V306.418C342.157 308.045 342.97 310.486 344.598 310.486H676.582C678.21 310.486 680.922 308.045 680.922 306.418V107.064C681.193 96.4863 671.429 88.0782 660.851 88.0782ZM673.056 305.061H347.581V107.064C347.581 100.012 353.548 96.2151 360.6 96.2151H660.851C667.903 96.2151 673.056 100.012 673.056 107.064V305.061Z" fill="#DDE5E9"/>
<path d="M656.24 289.059H365.211C363.584 289.059 362.228 287.703 362.228 286.075V111.675C362.228 110.048 363.584 108.692 365.211 108.692H656.24C657.867 108.692 659.223 110.048 659.223 111.675V286.075C659.495 287.703 658.138 289.059 656.24 289.059Z" fill="#DDE5E9"/>
<path d="M676.853 340.05H344.597C331.85 340.05 321.543 331.913 321.543 321.606V306.417C321.543 304.79 322.899 303.434 324.527 303.434H696.653C698.28 303.434 699.636 304.79 699.636 306.417V321.606C699.907 331.642 689.601 340.05 676.853 340.05ZM327.781 309.401V321.606C327.781 328.116 335.647 333.812 344.597 333.812H676.582C685.804 333.812 693.398 328.116 693.398 321.606V309.401H327.781Z" fill="#DDE5E9"/>
<path d="M510.59 331.371C505.165 331.371 500.826 327.031 500.826 321.607C500.826 316.182 505.165 311.842 510.59 311.842C516.015 311.842 520.354 316.182 520.354 321.607C520.625 327.031 516.015 331.371 510.59 331.371ZM510.59 318.081C508.691 318.081 507.064 319.708 507.064 321.607C507.064 323.505 508.691 325.132 510.59 325.132C512.489 325.132 514.116 323.505 514.116 321.607C514.387 319.708 512.76 318.081 510.59 318.081Z" fill="#DDE5E9"/>
<path d="M407.794 259.766C391.792 242.407 364.669 241.594 347.31 257.596C329.952 273.599 329.138 300.722 345.14 318.08C361.143 335.439 388.266 336.253 405.625 320.25C422.983 304.248 423.797 277.125 407.794 259.766ZM398.301 312.113C385.554 324.047 365.211 323.505 353.277 310.486C341.343 297.738 341.886 277.396 354.905 265.462C367.652 253.528 387.995 254.07 399.929 267.089C411.863 280.108 411.049 300.179 398.301 312.113Z" fill="white"/>
<path d="M410.875 289.073C411.113 270.351 396.129 254.98 377.406 254.742C358.684 254.504 343.313 269.489 343.075 288.212C342.837 306.934 357.822 322.305 376.544 322.543C395.267 322.781 410.637 307.796 410.875 289.073Z" fill="#DDE5E9"/>
<path opacity="0.35" d="M355.175 290.686C357.123 290.686 358.701 289.108 358.701 287.16C358.701 285.213 357.123 283.635 355.175 283.635C353.228 283.635 351.649 285.213 351.649 287.16C351.649 289.108 353.228 290.686 355.175 290.686Z" fill="white"/>
<path d="M406.167 260.309C390.436 244.306 364.941 244.035 348.667 259.495C332.664 275.226 332.393 300.722 347.853 316.996C363.584 332.998 389.08 333.269 405.354 317.809C421.356 301.807 421.627 276.311 406.167 260.309ZM352.735 312.113C339.716 298.552 339.988 277.125 353.278 264.106C366.839 251.087 388.266 251.358 401.285 264.648C414.304 278.21 414.033 299.637 400.743 312.656C387.181 325.946 365.754 325.675 352.735 312.113Z" fill="#99BBFF"/>
<path d="M299.574 363.918C295.776 360.121 295.776 353.611 299.845 349.814L329.138 321.335L342.97 335.439L313.678 363.918C309.609 367.986 303.371 367.986 299.574 363.918Z" fill="#99BBFF"/>
<path d="M337.546 333.812L330.766 326.76C327.782 323.776 328.053 319.165 330.766 316.182L333.207 313.741C336.19 310.757 340.801 311.028 343.785 313.741L350.565 320.793C353.549 323.776 353.278 328.387 350.565 331.371L348.124 333.812C345.141 336.795 340.53 336.795 337.546 333.812Z" fill="#E3EDFF"/>
</svg>
