<svg width="317" height="250" viewBox="0 0 317 250" fill="none" xmlns="http://www.w3.org/2000/svg">
<path d="M48.1231 148.225C47.9166 148.018 47.779 147.743 47.5726 147.536C45.577 144.853 43.4438 142.307 41.2417 139.829C41.3105 134.875 41.1729 116.157 36.1495 117.121C31.539 118.015 37.5946 132.81 40.1407 138.66C39.1773 137.627 38.1451 136.595 37.1129 135.632C33.741 131.228 22.318 117.121 19.0149 120.906C15.9183 124.484 29.4746 132.26 35.3926 135.494C36.4936 136.526 37.5946 137.627 38.6268 138.728C32.9153 135.838 18.602 129.232 17.3634 133.774C15.9871 138.659 34.6356 139.692 39.7278 139.898C42.3427 142.72 44.82 145.747 47.1597 148.844C41.9987 145.61 27.8231 137.077 26.1027 141.619C24.2447 146.435 43.2373 149.257 47.9855 149.945C50.4627 153.386 52.8024 156.964 54.8668 160.68C49.9811 156.551 37.7322 146.78 35.3926 150.84C32.9153 155.244 50.738 160.68 55.6238 162.125C55.9678 162.744 56.3119 163.364 56.656 163.983C58.3075 167.148 59.8902 170.383 61.2665 173.617C56.7936 169.282 44.9577 158.271 42.3427 162.194C39.5214 166.46 57.1377 173.204 61.817 174.855C63.9502 179.879 65.7394 184.971 67.1845 190.201C63.3997 185.246 53.2153 172.722 50.0499 176.301C46.678 180.154 63.1245 189.238 67.5973 191.577C67.6662 191.784 67.735 191.99 67.8038 192.265C68.2855 194.054 68.6984 195.844 69.0424 197.702C69.1801 198.39 70.2811 198.252 70.1434 197.564C69.7994 195.775 69.4553 193.986 68.9736 192.128C71.2445 187.586 79.158 170.864 74.2723 169.557C69.7994 168.387 68.7672 183.732 68.4919 190.339C67.6662 187.38 66.7028 184.421 65.6706 181.53C64.9136 179.466 64.1567 177.402 63.3309 175.406C64.9136 170.727 70.4875 152.835 65.4641 152.216C60.8536 151.665 62.0234 167.286 62.6428 173.754C60.9912 169.97 59.2021 166.185 57.2065 162.538C58.4451 157.79 62.7804 139.485 57.6882 139.21C52.94 139.004 55.3485 154.831 56.4495 161.093C54.3163 157.239 51.9078 153.523 49.3617 149.876C49.9122 144.715 51.5638 126.479 46.5404 126.961C41.7922 127.305 46.0587 141.894 48.1231 148.225Z" fill="#DDE5E9"/>
<path d="M285.392 118.084C285.53 117.809 285.668 117.534 285.736 117.259C287.113 114.231 288.351 111.134 289.452 107.969C293.856 105.629 310.234 96.6145 307 92.6233C303.972 88.9762 293.856 101.363 290.003 106.455C290.416 105.079 290.898 103.702 291.242 102.395C293.512 97.3027 300.463 80.5809 295.508 79.4799C290.898 78.4477 290.485 94.0684 290.553 100.812C290.141 102.257 289.728 103.771 289.246 105.216C289.04 98.8166 288.007 83.1271 283.397 84.1593C278.442 85.2603 286.425 102.188 288.695 106.73C287.457 110.377 286.012 114.024 284.36 117.534C284.773 111.478 285.461 94.963 280.644 95.5823C275.552 96.2016 282.089 114.3 283.81 118.773C281.952 122.626 279.887 126.342 277.685 129.989C278.993 123.727 281.745 108.244 277.066 108.175C271.974 108.106 275.759 126.342 276.86 131.365C276.515 131.985 276.103 132.535 275.69 133.155C273.694 136.114 271.63 139.004 269.428 141.825C271.148 135.838 275.139 120.149 270.391 119.736C265.299 119.323 267.845 137.972 268.533 142.926C265.161 147.193 261.514 151.184 257.592 154.969C260.138 149.257 266.262 134.324 261.652 133.292C256.697 132.122 256.559 150.977 256.559 156.001C256.422 156.138 256.215 156.345 256.078 156.482C254.702 157.721 253.394 159.029 251.949 160.13C251.398 160.542 252.087 161.437 252.637 161.024C254.082 159.854 255.458 158.684 256.835 157.377C261.858 157.171 280.369 156.138 279.199 151.253C278.098 146.78 264.129 153.179 258.211 156.07C260.413 153.936 262.546 151.665 264.611 149.326C266.056 147.674 267.501 146.023 268.877 144.302C273.694 143.408 292.136 139.83 290.278 135.081C288.558 130.746 275.346 139.21 269.978 142.926C272.524 139.692 275.002 136.32 277.204 132.811C281.952 131.641 300.119 126.686 297.917 122.076C295.852 117.809 283.053 127.443 278.098 131.434C280.438 127.718 282.64 123.865 284.567 119.874C289.384 117.878 306.174 110.584 303.353 106.386C300.807 102.533 290.003 113.267 285.392 118.084Z" fill="#DDE5E9"/>
<path d="M84.5944 132.466C84.5944 132.466 86.3836 128.613 87.347 123.589C87.2094 122.006 87.0029 120.424 86.6589 118.979C86.3836 117.671 86.1083 116.433 85.7643 115.194C84.8697 116.777 83.6999 118.359 82.4612 119.46C82.4612 119.46 83.9063 116.433 84.8697 112.166C83.9063 109.276 82.6677 106.592 81.2226 104.046C80.7409 105.56 80.1215 107.143 79.2958 108.313C79.2958 108.313 79.7775 105.56 79.7775 101.706C79.5022 101.294 79.227 100.812 78.9517 100.399C77.369 98.0593 75.511 95.8573 73.5154 93.7929C73.3778 95.5132 73.0337 97.3712 72.4144 98.8163C72.4144 98.8163 72.4144 95.8573 71.7263 92.0037C69.6619 90.1458 67.391 88.3566 64.9137 86.7739C64.9825 88.4254 64.9137 90.2146 64.5009 91.6597C64.5009 91.6597 64.088 89.0447 62.9869 85.6041C60.7849 84.2966 58.3764 83.1956 55.7615 82.1634C56.0368 83.5397 56.2432 84.9847 56.1744 86.2234C56.1744 86.2234 55.4863 84.2278 54.0412 81.544C52.1144 80.8559 50.1188 80.3054 47.9856 79.8237C45.7835 79.342 43.4439 78.9291 40.7601 78.7915C39.9344 81.3376 39.4527 83.6773 39.1086 85.8793C38.7645 88.0813 38.5581 90.1458 38.5581 92.1414C40.5537 94.4122 42.2052 95.7885 42.2052 95.7885C41.0354 95.3756 39.7279 94.6875 38.5581 93.9305C38.5581 96.7519 38.7645 99.4356 39.1774 101.913C41.9988 104.184 44.2696 105.491 44.2696 105.491C42.7557 105.354 41.1042 104.734 39.5903 104.115C40.2096 107.005 40.9666 109.758 41.9988 112.304C45.3707 114.368 48.1232 115.4 48.1232 115.4C46.5405 115.469 44.6825 115.125 43.031 114.643C44.2696 117.258 45.6459 119.736 47.2974 122.144C47.5727 122.557 47.9168 122.97 48.192 123.383C51.7703 124.759 54.5229 125.241 54.5229 125.241C53.1466 125.585 51.4263 125.585 49.8435 125.516C51.7015 127.787 53.7659 129.92 56.1056 131.847C60.4408 132.466 63.7439 132.191 63.7439 132.191C62.2988 133.017 60.372 133.498 58.5829 133.774C59.6151 134.531 60.7161 135.288 61.8171 135.976C63.1246 136.801 64.5009 137.558 65.8771 138.246C70.9693 139.21 75.167 138.866 75.167 138.866C73.9283 139.554 72.2768 140.036 70.6941 140.311C71.1758 140.449 71.5887 140.655 72.0704 140.793C73.9971 141.481 76.0615 142.031 78.2636 142.513C80.4656 142.995 82.7365 143.408 85.489 143.545C86.3148 140.999 86.7965 138.659 87.0717 136.457C87.4158 134.255 87.5534 132.122 87.6222 130.058C87.6222 129.576 87.6222 129.094 87.6222 128.613C86.7277 130.195 85.6955 131.503 84.5944 132.466Z" fill="#E3EDFF"/>
<mask id="mask0_840_11497" style="mask-type:luminance" maskUnits="userSpaceOnUse" x="38" y="78" width="50" height="66">
<path d="M84.5944 132.466C84.5944 132.466 86.3836 128.613 87.347 123.589C87.2094 122.006 87.0029 120.424 86.6589 118.979C86.3836 117.671 86.1083 116.433 85.7643 115.194C84.8697 116.777 83.6999 118.359 82.4612 119.46C82.4612 119.46 83.9063 116.433 84.8697 112.166C83.9063 109.276 82.6677 106.592 81.2226 104.046C80.7409 105.56 80.1215 107.143 79.2958 108.313C79.2958 108.313 79.7775 105.56 79.7775 101.706C79.5022 101.294 79.227 100.812 78.9517 100.399C77.369 98.0593 75.511 95.8573 73.5154 93.7929C73.3778 95.5132 73.0337 97.3712 72.4144 98.8163C72.4144 98.8163 72.4144 95.8573 71.7263 92.0037C69.6619 90.1458 67.391 88.3566 64.9137 86.7739C64.9825 88.4254 64.9137 90.2146 64.5009 91.6597C64.5009 91.6597 64.088 89.0447 62.9869 85.6041C60.7849 84.2966 58.3764 83.1956 55.7615 82.1634C56.0368 83.5397 56.2432 84.9847 56.1744 86.2234C56.1744 86.2234 55.4863 84.2278 54.0412 81.544C52.1144 80.8559 50.1188 80.3054 47.9856 79.8237C45.7835 79.342 43.4439 78.9291 40.7601 78.7915C39.9344 81.3376 39.4527 83.6773 39.1086 85.8793C38.7645 88.0813 38.5581 90.1458 38.5581 92.1414C40.5537 94.4122 42.2052 95.7885 42.2052 95.7885C41.0354 95.3756 39.7279 94.6875 38.5581 93.9305C38.5581 96.7519 38.7645 99.4356 39.1774 101.913C41.9988 104.184 44.2696 105.491 44.2696 105.491C42.7557 105.354 41.1042 104.734 39.5903 104.115C40.2096 107.005 40.9666 109.758 41.9988 112.304C45.3707 114.368 48.1232 115.4 48.1232 115.4C46.5405 115.469 44.6825 115.125 43.031 114.643C44.2696 117.258 45.6459 119.736 47.2974 122.144C47.5727 122.557 47.9168 122.97 48.192 123.383C51.7703 124.759 54.5229 125.241 54.5229 125.241C53.1466 125.585 51.4263 125.585 49.8435 125.516C51.7015 127.787 53.7659 129.92 56.1056 131.847C60.4408 132.466 63.7439 132.191 63.7439 132.191C62.2988 133.017 60.372 133.498 58.5829 133.774C59.6151 134.531 60.7161 135.288 61.8171 135.976C63.1246 136.801 64.5009 137.558 65.8771 138.246C70.9693 139.21 75.167 138.866 75.167 138.866C73.9283 139.554 72.2768 140.036 70.6941 140.311C71.1758 140.449 71.5887 140.655 72.0704 140.793C73.9971 141.481 76.0615 142.031 78.2636 142.513C80.4656 142.995 82.7365 143.408 85.489 143.545C86.3148 140.999 86.7965 138.659 87.0717 136.457C87.4158 134.255 87.5534 132.122 87.6222 130.058C87.6222 129.576 87.6222 129.094 87.6222 128.613C86.7277 130.195 85.6955 131.503 84.5944 132.466Z" fill="white"/>
</mask>
<g mask="url(#mask0_840_11497)">
<path d="M77.7818 94.7564L77.0936 94.6876C77.0936 94.8253 76.4743 107.005 68.3543 118.36L62.2299 109.483C70.6251 97.8531 69.5241 82.8517 69.5241 82.7141H68.836C68.836 82.8517 69.8682 97.3714 61.7482 108.794L56.3119 100.881C64.6384 89.1825 56.7936 72.5984 56.656 72.4608L56.0366 72.7361C56.1055 72.8737 63.7438 88.8385 55.8302 100.262L49.981 91.7975C53.0777 80.1679 45.0953 65.4418 45.0265 65.3042L44.4071 65.6483C44.476 65.7859 52.0455 79.7551 49.4305 91.0405L37.457 73.5618L36.9065 73.9747L48.88 91.4534C37.457 89.8707 27.1349 77.8283 26.9973 77.6907L26.4468 78.1723C26.5844 78.31 37.3882 90.9717 49.3617 92.2791L55.2109 100.743C41.7922 104.046 29.6122 91.1781 29.4746 91.1093L28.9929 91.591C29.1305 91.7286 41.7234 105.01 55.6926 101.431L61.1289 109.345C47.5726 112.786 34.3603 106.661 34.2227 106.592L33.9475 107.212C34.0851 107.281 47.6414 113.611 61.5417 109.964L67.6662 118.841C54.1099 122.351 42.5492 118.566 42.4115 118.497L42.2051 119.185C42.3427 119.254 54.2475 123.176 68.079 119.461L72.6896 126.135C59.2021 129.714 49.1553 128.269 49.0865 128.2L49.0177 128.888C49.0865 128.888 59.4085 130.402 73.1712 126.755L78.1946 134.049C66.8404 137.008 58.5139 135.838 58.3763 135.769L58.3075 136.458C58.3763 136.458 67.0468 137.765 78.6075 134.668L82.8052 140.724C75.7174 142.651 70.4875 141.894 70.4187 141.894L70.3499 142.582C70.5563 142.582 75.855 143.339 83.218 141.343L91.3381 153.179L91.8886 152.766L83.7685 140.93C88.3102 134.806 89.4801 129.576 89.5489 129.37L88.8608 129.163C88.8608 129.232 87.6221 134.324 83.2869 140.311L79.0892 134.255C86.1082 124.553 88.035 116.02 88.035 115.951L87.3469 115.745C87.3469 115.813 85.4889 124.071 78.6075 133.636L73.8594 126.342C82.2547 114.781 84.5255 104.666 84.5255 104.597L83.8374 104.39C83.8374 104.459 81.5665 114.368 73.4465 125.723L68.836 119.048C77.1624 107.418 77.7818 94.8941 77.7818 94.7564Z" fill="#E3EDFF"/>
</g>
<path opacity="0.1" d="M79.7776 101.638C79.5023 101.225 79.2271 100.743 78.9518 100.33C77.3691 97.9905 75.5111 95.7884 73.5156 93.724C73.3779 95.4444 73.0339 97.3023 72.4145 98.7474C72.4145 98.7474 72.4145 95.7884 71.7264 91.9349C69.662 90.0769 67.3911 88.2877 64.9138 86.705C64.9827 88.3566 64.9138 90.1457 64.501 91.5908C64.501 91.5908 64.0881 88.9759 62.9871 85.5352C60.785 84.2277 58.3765 83.1267 55.7616 82.0945C56.0369 83.4708 56.2433 84.9159 56.1745 86.1545C56.1745 86.1545 55.4864 84.1589 54.0413 81.4752C52.1145 80.7871 50.1189 80.2366 47.9857 79.7549C45.7837 79.2732 43.444 78.8603 40.7603 78.7227L85.4203 143.683C86.2461 141.137 86.7278 138.797 87.003 136.595C87.3471 134.393 87.4847 132.26 87.5535 130.195C87.5535 129.714 87.5535 129.232 87.5535 128.75C86.7278 130.126 85.6956 131.503 84.5946 132.397C84.5946 132.397 86.3837 128.544 87.3471 123.52C87.2095 121.938 87.003 120.355 86.659 118.91C86.3837 117.602 86.1085 116.364 85.7644 115.125C84.8698 116.708 83.7 118.29 82.4613 119.392C82.4613 119.392 83.9064 116.364 84.8698 112.097C83.9064 109.207 82.6678 106.523 81.2227 103.977C80.741 105.491 80.1217 107.074 79.2959 108.244C79.2271 108.175 79.7776 105.422 79.7776 101.638Z" fill="#104082"/>
<path d="M271.767 192.54C271.767 192.54 276.034 192.816 281.057 191.784C282.502 191.027 283.81 190.27 285.117 189.444C286.218 188.756 287.319 187.999 288.351 187.242C286.562 186.967 284.635 186.485 283.19 185.728C283.19 185.728 286.562 185.934 290.829 185.315C293.168 183.319 295.164 181.186 297.022 178.915C295.439 179.053 293.719 179.053 292.343 178.709C292.343 178.709 295.095 178.158 298.673 176.782C298.949 176.369 299.293 175.956 299.568 175.543C301.151 173.204 302.527 170.658 303.766 168.043C302.114 168.525 300.256 168.869 298.673 168.869C298.673 168.869 301.426 167.768 304.729 165.703C305.761 163.088 306.518 160.404 307.069 157.446C305.555 158.134 303.834 158.684 302.389 158.891C302.389 158.891 304.66 157.583 307.482 155.312C307.894 152.766 308.032 150.082 308.032 147.33C306.862 148.087 305.555 148.844 304.385 149.188C304.385 149.188 305.968 147.812 307.963 145.472C307.894 143.476 307.688 141.412 307.344 139.21C307 137.008 306.518 134.668 305.624 132.122C302.94 132.26 300.6 132.673 298.398 133.223C296.265 133.705 294.201 134.324 292.343 135.012C290.966 137.696 290.278 139.76 290.278 139.76C290.209 138.522 290.347 137.077 290.691 135.7C288.076 136.733 285.668 137.902 283.466 139.21C282.433 142.651 282.02 145.265 282.02 145.265C281.608 143.82 281.539 142.031 281.608 140.38C279.13 141.962 276.928 143.752 274.864 145.678C274.176 149.532 274.176 152.491 274.176 152.491C273.556 151.046 273.212 149.188 273.006 147.468C271.01 149.532 269.221 151.803 267.638 154.142C267.363 154.555 267.088 155.037 266.813 155.45C266.881 159.235 267.363 162.056 267.363 162.056C266.537 160.886 265.918 159.303 265.436 157.79C263.991 160.336 262.821 163.088 261.858 165.91C262.89 170.107 264.335 173.135 264.335 173.135C263.028 172.103 261.858 170.451 260.964 168.937C260.619 170.176 260.344 171.483 260.069 172.791C259.794 174.305 259.587 175.819 259.45 177.401C260.413 182.494 262.271 186.278 262.271 186.278C261.17 185.384 260.138 184.008 259.243 182.631C259.243 183.113 259.243 183.595 259.243 184.076C259.312 186.141 259.518 188.205 259.862 190.476C260.207 192.678 260.688 195.018 261.514 197.564C264.198 197.426 266.537 196.945 268.671 196.463C270.873 195.981 272.868 195.362 274.795 194.674C275.277 194.536 275.69 194.33 276.171 194.192C274.657 193.71 273.006 193.229 271.767 192.54Z" fill="#E3EDFF"/>
<mask id="mask1_840_11497" style="mask-type:luminance" maskUnits="userSpaceOnUse" x="259" y="132" width="50" height="66">
<path d="M271.767 192.54C271.767 192.54 276.034 192.816 281.057 191.784C282.502 191.027 283.81 190.27 285.117 189.444C286.218 188.756 287.319 187.999 288.351 187.242C286.562 186.967 284.635 186.485 283.19 185.728C283.19 185.728 286.562 185.934 290.829 185.315C293.168 183.319 295.164 181.186 297.022 178.915C295.439 179.053 293.719 179.053 292.343 178.709C292.343 178.709 295.095 178.158 298.673 176.782C298.949 176.369 299.293 175.956 299.568 175.543C301.151 173.204 302.527 170.658 303.766 168.043C302.114 168.525 300.256 168.869 298.673 168.869C298.673 168.869 301.426 167.768 304.729 165.703C305.761 163.088 306.518 160.404 307.069 157.446C305.555 158.134 303.834 158.684 302.389 158.891C302.389 158.891 304.66 157.583 307.482 155.312C307.894 152.766 308.032 150.082 308.032 147.33C306.862 148.087 305.555 148.844 304.385 149.188C304.385 149.188 305.968 147.812 307.963 145.472C307.894 143.476 307.688 141.412 307.344 139.21C307 137.008 306.518 134.668 305.624 132.122C302.94 132.26 300.6 132.673 298.398 133.223C296.265 133.705 294.201 134.324 292.343 135.012C290.966 137.696 290.278 139.76 290.278 139.76C290.209 138.522 290.347 137.077 290.691 135.7C288.076 136.733 285.668 137.902 283.466 139.21C282.433 142.651 282.02 145.265 282.02 145.265C281.608 143.82 281.539 142.031 281.608 140.38C279.13 141.962 276.928 143.752 274.864 145.678C274.176 149.532 274.176 152.491 274.176 152.491C273.556 151.046 273.212 149.188 273.006 147.468C271.01 149.532 269.221 151.803 267.638 154.142C267.363 154.555 267.088 155.037 266.813 155.45C266.881 159.235 267.363 162.056 267.363 162.056C266.537 160.886 265.918 159.303 265.436 157.79C263.991 160.336 262.821 163.088 261.858 165.91C262.89 170.107 264.335 173.135 264.335 173.135C263.028 172.103 261.858 170.451 260.964 168.937C260.619 170.176 260.344 171.483 260.069 172.791C259.794 174.305 259.587 175.819 259.45 177.401C260.413 182.494 262.271 186.278 262.271 186.278C261.17 185.384 260.138 184.008 259.243 182.631C259.243 183.113 259.243 183.595 259.243 184.076C259.312 186.141 259.518 188.205 259.862 190.476C260.207 192.678 260.688 195.018 261.514 197.564C264.198 197.426 266.537 196.945 268.671 196.463C270.873 195.981 272.868 195.362 274.795 194.674C275.277 194.536 275.69 194.33 276.171 194.192C274.657 193.71 273.006 193.229 271.767 192.54Z" fill="white"/>
</mask>
<g mask="url(#mask1_840_11497)">
<path d="M304.316 172.378L304.11 171.69C303.972 171.759 292.411 175.612 278.855 172.241L284.911 163.295C298.811 166.804 312.367 160.336 312.505 160.267L312.23 159.648C312.092 159.716 298.949 165.979 285.392 162.675L290.76 154.693C304.729 158.134 317.253 144.784 317.322 144.646L316.84 144.165C316.702 144.302 304.66 157.239 291.173 154.074L296.953 145.541C308.927 144.096 319.661 131.365 319.799 131.228L319.249 130.746C319.111 130.884 308.927 142.995 297.503 144.715L309.339 127.168L308.789 126.755L296.953 144.302C294.269 133.086 301.701 119.048 301.77 118.91L301.151 118.566C301.082 118.704 293.237 133.498 296.402 145.059L290.622 153.592C282.64 142.307 290.14 126.273 290.209 126.135L289.59 125.86C289.521 125.998 281.745 142.651 290.209 154.28L284.842 162.263C276.653 150.908 277.547 136.389 277.547 136.251H276.859C276.859 136.389 275.965 151.39 284.429 162.951L278.373 171.897C270.184 160.611 269.427 148.431 269.427 148.293L268.739 148.362C268.739 148.5 269.496 161.024 277.96 172.516L273.419 179.26C265.161 167.974 262.821 158.134 262.821 158.065L262.133 158.271C262.133 158.34 264.542 168.456 273.006 179.948L268.051 187.311C261.101 177.883 259.174 169.626 259.174 169.557L258.486 169.763C258.486 169.832 260.482 178.365 267.638 187.999L263.51 194.123C259.174 188.205 257.867 183.113 257.867 183.044L257.179 183.251C257.247 183.457 258.486 188.687 263.097 194.743L255.045 206.647L255.596 207.06L263.647 195.156C271.01 197.082 276.309 196.325 276.515 196.325L276.446 195.637C276.378 195.637 271.148 196.394 264.06 194.536L268.189 188.412C279.818 191.371 288.42 190.063 288.489 190.063L288.42 189.375C288.351 189.375 279.956 190.683 268.602 187.792L273.556 180.429C287.388 184.008 297.641 182.425 297.71 182.356L297.641 181.668C297.572 181.668 287.525 183.251 273.969 179.81L278.511 173.066C292.274 176.438 304.178 172.447 304.316 172.378Z" fill="#E3EDFF"/>
</g>
<path opacity="0.1" d="M298.673 176.713C298.948 176.3 299.292 175.888 299.568 175.475C301.15 173.135 302.527 170.589 303.765 167.974C302.114 168.456 300.256 168.8 298.673 168.8C298.673 168.8 301.426 167.699 304.729 165.634C305.761 163.019 306.518 160.336 307.068 157.377C305.554 158.065 303.834 158.615 302.389 158.822C302.389 158.822 304.66 157.514 307.481 155.243C307.894 152.697 308.032 150.014 308.032 147.261C306.862 148.018 305.554 148.775 304.385 149.119C304.385 149.119 305.967 147.743 307.963 145.403C307.894 143.407 307.688 141.343 307.344 139.141C306.999 136.939 306.518 134.599 305.623 132.053L261.514 197.426C264.197 197.289 266.537 196.807 268.67 196.325C270.872 195.843 272.868 195.224 274.795 194.536C275.276 194.398 275.689 194.192 276.171 194.054C274.588 193.779 272.937 193.297 271.698 192.609C271.698 192.609 275.965 192.885 280.988 191.852C282.433 191.095 283.74 190.338 285.048 189.513C286.149 188.824 287.25 188.068 288.282 187.311C286.493 187.035 284.566 186.554 283.121 185.797C283.121 185.797 286.493 186.003 290.759 185.384C293.099 183.388 295.095 181.255 296.953 178.984C295.37 179.122 293.65 179.122 292.273 178.778C292.342 178.64 295.095 178.09 298.673 176.713Z" fill="#104082"/>
<path d="M158.5 250C245.797 250 316.565 244.732 316.565 238.233C316.565 231.734 245.797 226.466 158.5 226.466C71.2031 226.466 0.435059 231.734 0.435059 238.233C0.435059 244.732 71.2031 250 158.5 250Z" fill="#F3F6FF"/>
<path d="M275.759 52.0923H75.167V232.04H275.759V52.0923Z" fill="#F5F9FF"/>
<path d="M275.759 52.0923H75.167V73.3557H275.759V52.0923Z" fill="#F8F9FD"/>
<path d="M91.3383 62.7582C91.3383 65.029 89.4803 66.8182 87.2783 66.8182C85.0074 66.8182 83.2183 64.9602 83.2183 62.7582C83.2183 60.5561 85.0762 58.6981 87.2783 58.6981C89.5491 58.6293 91.3383 60.4873 91.3383 62.7582Z" fill="#DDE5E9"/>
<path d="M105.101 62.7582C105.101 65.029 103.243 66.8182 101.041 66.8182C98.7701 66.8182 96.981 64.9602 96.981 62.7582C96.981 60.5561 98.8389 58.6981 101.041 58.6981C103.312 58.6293 105.101 60.4873 105.101 62.7582Z" fill="#C7C9D9"/>
<path d="M118.864 62.7583C118.864 65.0291 117.006 66.8183 114.804 66.8183C112.602 66.8183 110.744 64.9603 110.744 62.7583C110.744 60.5562 112.602 58.6982 114.804 58.6982C117.006 58.6982 118.864 60.4874 118.864 62.7583Z" fill="#E3EDFF"/>
<path d="M246.375 134.806C247.339 132.398 245.962 130.402 243.347 130.402H146.802C144.187 130.402 141.228 132.398 140.265 134.806L118.864 189.1C117.9 191.509 119.276 193.504 121.891 193.504H218.437C221.052 193.504 224.011 191.509 224.974 189.1L246.375 134.806Z" fill="#E3EDFF"/>
<path d="M114.253 184.421L135.654 130.127C136.618 127.718 139.577 125.723 142.191 125.723H217.955V120.906C217.955 118.291 215.822 116.158 213.207 116.158H179.42C176.805 116.158 173.639 114.3 172.401 111.96L167.79 103.496C166.551 101.225 163.386 99.2983 160.771 99.2983H117.35C114.735 99.2983 112.602 101.432 112.602 104.046V184.077C112.602 186.348 114.253 188.343 116.455 188.756C114.391 188.343 113.427 186.554 114.253 184.421Z" fill="#E3EDFF"/>
<path d="M184.443 145.403C174.534 145.403 166.414 153.455 166.414 163.432C166.414 173.342 174.465 181.462 184.443 181.462C194.352 181.462 202.472 173.41 202.472 163.432C202.404 153.455 194.352 145.403 184.443 145.403ZM193.251 169.626L190.636 172.241L184.443 166.047L178.25 172.241L175.635 169.626L181.828 163.432L175.635 157.239L178.25 154.624L184.443 160.818L190.636 154.624L193.251 157.239L187.058 163.432L193.251 169.626Z" fill="#C7C9D9"/>
<path d="M124.437 232.659C124.437 237.339 103.174 241.192 72.2076 241.192C41.2414 241.192 19.978 237.407 19.978 232.659C19.978 227.911 41.2414 224.126 72.2076 224.126C103.174 224.126 124.437 227.98 124.437 232.659Z" fill="#DDE5E9"/>
<path d="M86.9339 125.517H72.2766H57.6193L35.1172 230.801C53.8345 234.861 72.3454 234.862 72.3454 234.862C72.3454 234.862 90.8562 234.861 109.574 230.801L86.9339 125.517Z" fill="#E3EDFF"/>
<path d="M72.2764 127.719C80.3715 127.719 86.9338 126.733 86.9338 125.516C86.9338 124.3 80.3715 123.314 72.2764 123.314C64.1814 123.314 57.6191 124.3 57.6191 125.516C57.6191 126.733 64.1814 127.719 72.2764 127.719Z" fill="#DDE5E9"/>
<mask id="mask2_840_11497" style="mask-type:luminance" maskUnits="userSpaceOnUse" x="35" y="125" width="75" height="110">
<path d="M86.9339 125.517H72.2766H57.6193L35.1172 230.801C53.8345 234.861 72.3454 234.862 72.3454 234.862C72.3454 234.862 90.8562 234.861 109.574 230.801L86.9339 125.517Z" fill="white"/>
</mask>
<g mask="url(#mask2_840_11497)">
<path d="M71.5886 226.191C41.3794 226.191 21.0106 221.167 19.7031 220.823L23.9008 204.308L21.7675 212.566L23.8319 204.308C24.2448 204.446 67.8039 215.112 120.928 204.239L124.369 220.961C105.101 224.883 87.0717 226.191 71.5886 226.191Z" fill="#F8F9FD"/>
<path d="M71.5886 189.032C41.3794 189.032 21.0106 184.008 19.7031 183.664L23.9008 167.149L21.7675 175.407L23.8319 167.149C24.2448 167.287 67.8039 177.953 120.928 167.08L124.369 183.802C105.101 187.724 87.0717 189.032 71.5886 189.032Z" fill="#F8F9FD"/>
<path d="M71.5886 151.872C41.3794 151.872 21.0106 146.849 19.7031 146.504L23.9008 129.989L21.7675 138.247L23.8319 129.989C24.2448 130.127 67.8039 140.793 120.928 129.92L124.369 146.642C105.101 150.564 87.0717 151.872 71.5886 151.872Z" fill="#F8F9FD"/>
</g>
<path opacity="0.1" d="M90.5808 176.301C90.5808 199.216 85.8327 219.86 78.1943 234.655C85.1445 234.311 97.2557 233.416 109.436 230.801L86.9337 125.517H81.7038C87.2777 139.486 90.5808 157.102 90.5808 176.301Z" fill="#104082"/>
<g opacity="0.3">
<path d="M59.2019 141.757C58.6514 144.371 58.1009 146.918 57.6192 149.532C56.3117 155.726 55.0731 161.988 53.7656 168.181C52.1829 175.75 50.6002 183.32 49.0863 190.821C47.71 197.289 46.4025 203.826 45.0263 210.295C44.4069 213.46 43.5812 216.626 43.0307 219.791C43.0307 219.86 43.0307 219.86 43.0307 219.929C42.4802 222.544 46.5402 223.301 47.0907 220.686C47.6412 218.071 48.1917 215.525 48.6734 212.91C49.9809 206.717 51.2195 200.455 52.527 194.261C54.1097 186.692 55.6924 179.122 57.2063 171.622C58.5826 165.153 59.89 158.616 61.2663 152.147C61.8856 148.982 62.7114 145.817 63.2619 142.651C63.2619 142.582 63.2619 142.582 63.2619 142.513C63.7436 139.899 59.6836 139.21 59.2019 141.757Z" fill="white"/>
</g>
<path d="M264.91 203.769L167.638 231.536L169.338 237.492L266.61 209.724L264.91 203.769Z" fill="#E3EDFF"/>
<path d="M264.931 203.747L220.53 216.421L222.23 222.377L266.631 209.702L264.931 203.747Z" fill="#DDE5E9"/>
<path d="M268.415 237.775C285.569 236.317 298.294 221.229 296.836 204.075C295.379 186.921 280.291 174.197 263.137 175.654C245.982 177.112 233.258 192.2 234.715 209.354C236.173 226.508 251.261 239.233 268.415 237.775Z" fill="#DDE5E9"/>
<path d="M288.659 216.928C294.292 204.293 288.615 189.483 275.979 183.85C263.344 178.217 248.534 183.893 242.901 196.529C237.268 209.165 242.944 223.975 255.58 229.608C268.216 235.241 283.026 229.564 288.659 216.928Z" fill="#F8F9FD"/>
<path d="M284.636 201.349L281.677 202.175C279.199 193.435 270.047 188.343 261.308 190.82L260.482 187.861C270.804 184.902 281.677 190.958 284.636 201.349Z" fill="white"/>
<path d="M242.59 50.9223L212.794 41.9077L194.833 101.019L241.145 115.057L254.22 71.9793L242.59 50.9223Z" fill="#E3EDFF"/>
<path d="M239.562 74.3186L237.429 70.3274L227.864 75.4196L222.772 65.9233L218.781 68.0566L223.873 77.5529L214.376 82.6451L216.51 86.6363L226.006 81.544L231.167 91.1091L235.089 88.9759L229.997 79.4108L239.562 74.3186Z" fill="white"/>
<path d="M163.455 10.46L133.177 17.823L147.834 77.8973L194.834 66.4055L184.168 22.64L163.455 10.46Z" fill="#E3EDFF"/>
<path d="M172.744 32.1365L168.891 29.7969L163.248 39.0179L154.027 33.3752L151.688 37.2288L160.909 42.8715L155.266 52.1613L159.188 54.501L164.762 45.2111L174.052 50.8539L176.392 47.0003L167.102 41.3576L172.744 32.1365Z" fill="white"/>
<path d="M269.496 15.8961H261.858V8.18896H259.106V15.8961H251.398V18.5798H259.106V26.287H261.858V18.5798H269.496V15.8961Z" fill="#E3EDFF"/>
<path d="M286.769 42.3207H282.571V38.123H281.057V42.3207H276.859V43.8346H281.057V48.0322H282.571V43.8346H286.769V42.3207Z" fill="#E3EDFF"/>
<path d="M240.526 35.0263H235.434V29.9341H233.644V35.0263H228.552V36.8154H233.644V41.9077H235.434V36.8154H240.526V35.0263Z" fill="#E3EDFF"/>
<path d="M48.3983 34.2696H40.6911V26.5625H37.9386V34.2696H30.2314V36.9534H37.9386V44.6605H40.6911V36.9534H48.3983V34.2696Z" fill="#E3EDFF"/>
<path d="M81.979 29.6591H77.7814V25.4614H76.2675V29.6591H72.0698V31.173H76.2675V35.3018H77.7814V31.173H81.979V29.6591Z" fill="#E3EDFF"/>
<path d="M56.4496 63.7905H51.3574V58.7671H49.5683V63.7905H44.4761V65.6485H49.5683V70.6719H51.3574V65.6485H56.4496V63.7905Z" fill="#E3EDFF"/>
<path d="M224.905 3.16569C224.905 4.06027 224.148 4.81722 223.254 4.81722C222.359 4.81722 221.602 4.06027 221.602 3.16569C221.602 2.27111 222.359 1.51416 223.254 1.51416C224.148 1.51416 224.905 2.2023 224.905 3.16569Z" fill="white"/>
<path d="M300.256 63.102C300.256 64.8223 298.811 66.2674 297.091 66.2674C295.37 66.2674 293.925 64.8223 293.925 63.102C293.925 61.3816 295.37 59.9365 297.091 59.9365C298.811 59.9365 300.256 61.3816 300.256 63.102Z" fill="white"/>
<path d="M200.269 20.5065C200.269 21.4011 199.512 22.158 198.618 22.158C197.723 22.158 196.966 21.4011 196.966 20.5065C196.966 19.6119 197.723 18.855 198.618 18.855C199.512 18.855 200.269 19.6119 200.269 20.5065Z" fill="white"/>
<path d="M105.307 3.16543C105.307 4.88577 103.862 6.33085 102.142 6.33085C100.421 6.33085 98.9761 4.88577 98.9761 3.16543C98.9761 1.44509 100.421 0 102.142 0C103.862 0 105.307 1.37627 105.307 3.16543Z" fill="white"/>
<path d="M117.555 36.6086C117.555 37.5031 116.799 38.2601 115.904 38.2601C115.009 38.2601 114.252 37.5031 114.252 36.6086C114.252 35.714 115.009 34.957 115.904 34.957C116.799 34.957 117.555 35.714 117.555 36.6086Z" fill="white"/>
<path d="M20.1156 68.9508C20.1156 69.8454 19.3586 70.6023 18.464 70.6023C17.5695 70.6023 16.8125 69.8454 16.8125 68.9508C16.8125 68.0562 17.5695 67.2993 18.464 67.2993C19.3586 67.2305 20.1156 67.9874 20.1156 68.9508Z" fill="white"/>
</svg>
