<svg width="25" height="25" viewBox="0 0 25 25" fill="none" xmlns="http://www.w3.org/2000/svg">
<path d="M23.001 12.7028C23.001 11.8395 22.9296 11.2095 22.7748 10.5562H12.7153V14.4528H18.62C18.501 15.4211 17.8582 16.8795 16.4296 17.8594L16.4096 17.9899L19.5902 20.4046L19.8106 20.4261C21.8343 18.5945 23.001 15.8994 23.001 12.7028Z" fill="#4285F4"/>
<path d="M12.7147 22.9696C15.6075 22.9696 18.0361 22.0362 19.8099 20.4263L16.429 17.8595C15.5242 18.4779 14.3099 18.9095 12.7147 18.9095C9.88142 18.9095 7.47669 17.0779 6.61947 14.5462L6.49382 14.5567L3.18656 17.065L3.14331 17.1829C4.90519 20.6129 8.52423 22.9696 12.7147 22.9696Z" fill="#34A853"/>
<path d="M6.61997 14.5463C6.39379 13.8929 6.26289 13.1929 6.26289 12.4696C6.26289 11.7462 6.39379 11.0462 6.60807 10.3929L6.60208 10.2538L3.25337 7.70514L3.14381 7.75621C2.41765 9.17956 2.00098 10.7779 2.00098 12.4696C2.00098 14.1612 2.41765 15.7595 3.14381 17.1829L6.61997 14.5463Z" fill="#FBBC05"/>
<path d="M12.7148 6.02958C14.7267 6.02958 16.0838 6.88124 16.8576 7.59295L19.8814 4.6996C18.0243 3.00794 15.6076 1.9696 12.7148 1.9696C8.52426 1.9696 4.9052 4.32625 3.14331 7.75623L6.60759 10.3929C7.47672 7.86127 9.88146 6.02958 12.7148 6.02958Z" fill="#EB4335"/>
</svg>
