<svg width="26" height="22" viewBox="0 0 26 22" fill="none" xmlns="http://www.w3.org/2000/svg">
<path d="M15.8961 7.36426L14.7914 8.46895L15.8016 9.4791H8.3125V11.0416H15.8016L14.7914 12.0518L15.8961 13.1564L18.7922 10.2604L15.8961 7.36426Z" fill="#333333"/>
<path d="M17.6877 14.1666H10.1986L11.2088 13.1564L10.1041 12.0518L7.20801 14.9479L10.1041 17.8439L11.2088 16.7393L10.1986 15.7291H17.6877V14.1666Z" fill="#333333"/>
<path d="M25.5 10.2607H23.9375V11.8232H25.5V10.2607Z" fill="#333333"/>
<path d="M25.5 13.3857H23.9375V14.9482H25.5V13.3857Z" fill="#333333"/>
<path d="M18.2977 4.01074L17.5164 0.885742H8.48359L7.70234 4.01074H0.5V21.1982H25.5V16.5107H23.9375V19.6357H2.0625V5.57324H8.92266L9.70391 2.44824H16.2961L17.0773 5.57324H23.9375V8.69824H25.5V4.01074H18.2977Z" fill="#333333"/>
</svg>
