<svg width="26" height="26" viewBox="0 0 26 26" fill="none" xmlns="http://www.w3.org/2000/svg">
<g clip-path="url(#clip0_309_449)">
<path d="M12.8213 12.5848C14.4757 12.5848 15.9081 11.9914 17.0789 10.8207C18.2492 9.65011 18.8428 8.21789 18.8428 6.56327C18.8428 4.90922 18.2494 3.4768 17.0787 2.30588C15.9079 1.13554 14.4755 0.54216 12.8213 0.54216C11.1667 0.54216 9.73445 1.13554 8.56391 2.30607C7.39337 3.47661 6.7998 4.90903 6.7998 6.56327C6.7998 8.21789 7.39337 9.6503 8.56391 10.8208C9.73483 11.9912 11.1672 12.5848 12.8213 12.5848ZM9.59998 3.34195C10.4981 2.44378 11.5518 2.00719 12.8213 2.00719C14.0906 2.00719 15.1444 2.44378 16.0428 3.34195C16.941 4.24031 17.3777 5.29412 17.3777 6.56327C17.3777 7.8328 16.941 8.88641 16.0428 9.78477C15.1444 10.6831 14.0906 11.1197 12.8213 11.1197C11.5521 11.1197 10.4985 10.6829 9.59998 9.78477C8.70162 8.8866 8.26484 7.8328 8.26484 6.56327C8.26484 5.29412 8.70162 4.24031 9.59998 3.34195Z" fill="#333333"/>
<path d="M23.3578 19.7657C23.3241 19.2786 23.2558 18.7472 23.1553 18.1861C23.0538 17.6207 22.9231 17.0863 22.7667 16.5978C22.605 16.0929 22.3855 15.5944 22.1137 15.1166C21.8319 14.6207 21.5008 14.1888 21.1293 13.8335C20.7407 13.4618 20.2651 13.1629 19.715 12.9449C19.1668 12.728 18.5593 12.6181 17.9095 12.6181C17.6543 12.6181 17.4075 12.7229 16.9308 13.0332C16.6375 13.2245 16.2943 13.4457 15.9114 13.6905C15.5839 13.8991 15.1402 14.0946 14.5922 14.2716C14.0576 14.4446 13.5148 14.5324 12.9788 14.5324C12.4432 14.5324 11.9004 14.4446 11.3654 14.2716C10.818 14.0948 10.3741 13.8993 10.0472 13.6906C9.66785 13.4482 9.32453 13.227 9.02679 13.033C8.55053 12.7227 8.30372 12.618 8.04851 12.618C7.39849 12.618 6.79119 12.728 6.24321 12.9451C5.69351 13.1627 5.21763 13.4616 4.82872 13.8337C4.45717 14.1892 4.12606 14.6209 3.84453 15.1166C3.57312 15.5944 3.35339 16.0928 3.19165 16.598C3.03544 17.0865 2.90478 17.6207 2.80331 18.1861C2.70261 18.7464 2.63451 19.278 2.60075 19.7663C2.56757 20.2437 2.55078 20.7406 2.55078 21.2426C2.55078 22.5476 2.96563 23.6041 3.78369 24.3832C4.59164 25.1521 5.66052 25.5419 6.96075 25.5419H18.9984C20.2982 25.5419 21.3671 25.1521 22.1753 24.3832C22.9935 23.6046 23.4084 22.5478 23.4084 21.2424C23.4082 20.7387 23.3912 20.2418 23.3578 19.7657ZM21.1651 23.3218C20.6313 23.8299 19.9225 24.0769 18.9982 24.0769H6.96075C6.03626 24.0769 5.32749 23.8299 4.79382 23.322C4.27025 22.8236 4.01581 22.1432 4.01581 21.2426C4.01581 20.7741 4.03126 20.3116 4.06216 19.8676C4.0923 19.4319 4.1539 18.9534 4.24527 18.4449C4.33548 17.9427 4.45031 17.4714 4.58687 17.0447C4.71791 16.6356 4.89662 16.2305 5.11826 15.8402C5.32978 15.4683 5.57316 15.1492 5.84171 14.8921C6.09291 14.6516 6.40953 14.4547 6.78261 14.3071C7.12765 14.1705 7.51541 14.0958 7.93636 14.0845C7.98767 14.1118 8.07903 14.1639 8.22704 14.2604C8.52821 14.4566 8.87535 14.6806 9.2591 14.9256C9.69169 15.2014 10.249 15.4505 10.9149 15.6655C11.5956 15.8856 12.2899 15.9974 12.979 15.9974C13.6681 15.9974 14.3626 15.8856 15.0429 15.6657C15.7094 15.4504 16.2665 15.2014 16.6997 14.9253C17.0924 14.6743 17.4298 14.4568 17.731 14.2604C17.879 14.164 17.9703 14.1118 18.0216 14.0845C18.4428 14.0958 18.8305 14.1705 19.1758 14.3071C19.5487 14.4547 19.8653 14.6518 20.1165 14.8921C20.385 15.149 20.6284 15.4681 20.8399 15.8404C21.0618 16.2305 21.2407 16.6358 21.3715 17.0445C21.5083 17.4718 21.6233 17.9429 21.7133 18.4447C21.8045 18.9542 21.8663 19.4329 21.8964 19.8678V19.8682C21.9275 20.3105 21.9431 20.7728 21.9433 21.2426C21.9431 22.1434 21.6887 22.8236 21.1651 23.3218Z" fill="#333333"/>
</g>
<defs>
<clipPath id="clip0_309_449">
<rect width="25" height="25" fill="white" transform="translate(0.5 0.542114)"/>
</clipPath>
</defs>
</svg>
