<svg width="26" height="26" viewBox="0 0 26 26" fill="none" xmlns="http://www.w3.org/2000/svg">
<path d="M22.3748 1.32336H16.3857C15.7643 1.32403 15.1686 1.57117 14.7292 2.01056C14.2898 2.44996 14.0427 3.04572 14.042 3.66711V9.65696C14.0427 10.2784 14.2898 10.8741 14.7292 11.3135C15.1686 11.7529 15.7643 12 16.3857 12.0007H22.3748C22.9962 12 23.5919 11.7529 24.0313 11.3135C24.4707 10.8741 24.7179 10.2783 24.7186 9.65696V3.66711C24.7179 3.04573 24.4707 2.45 24.0313 2.01061C23.5919 1.57122 22.9962 1.32407 22.3748 1.32336ZM23.1561 9.65696C23.1558 9.86408 23.0734 10.0627 22.927 10.2091C22.7805 10.3556 22.5819 10.438 22.3748 10.4382H16.3857C16.1786 10.438 15.98 10.3556 15.8336 10.2091C15.6871 10.0627 15.6047 9.86408 15.6045 9.65696V3.66711C15.6047 3.45999 15.6871 3.26142 15.8336 3.11496C15.98 2.9685 16.1786 2.88611 16.3857 2.88586H22.3748C22.5819 2.88611 22.7805 2.9685 22.927 3.11496C23.0734 3.26142 23.1558 3.45999 23.1561 3.66711V9.65696Z" fill="#333333"/>
<path d="M3.625 24.7608H9.61406C10.2355 24.7602 10.8312 24.513 11.2706 24.0736C11.71 23.6342 11.9572 23.0385 11.9578 22.4171V16.4272C11.9572 15.8058 11.71 15.2101 11.2706 14.7707C10.8312 14.3313 10.2355 14.0842 9.61406 14.0835H3.625C3.00361 14.0842 2.40788 14.3314 1.96849 14.7707C1.52911 15.2101 1.28195 15.8059 1.28125 16.4272V22.4171C1.28195 23.0385 1.52911 23.6342 1.96849 24.0736C2.40788 24.513 3.00361 24.7601 3.625 24.7608ZM2.84375 16.4272C2.844 16.2201 2.92639 16.0216 3.07285 15.8751C3.21931 15.7286 3.41788 15.6462 3.625 15.646H9.61406C9.82119 15.6462 10.0198 15.7286 10.1662 15.8751C10.3127 16.0216 10.3951 16.2201 10.3953 16.4272V22.4171C10.3951 22.6242 10.3127 22.8228 10.1662 22.9692C10.0198 23.1157 9.82119 23.1981 9.61406 23.1983H3.625C3.41788 23.1981 3.21931 23.1157 3.07285 22.9692C2.92639 22.8228 2.844 22.6242 2.84375 22.4171V16.4272Z" fill="#333333"/>
<path d="M3.625 12.0007H9.61406C10.2355 12 10.8312 11.7529 11.2706 11.3135C11.71 10.8741 11.9572 10.2783 11.9578 9.65695V3.6671C11.9572 3.0457 11.71 2.44995 11.2706 2.01055C10.8312 1.57116 10.2355 1.32401 9.61406 1.32335H3.625C3.00361 1.32405 2.40788 1.57121 1.96849 2.0106C1.52911 2.44998 1.28195 3.04572 1.28125 3.6671V9.65695C1.28195 10.2783 1.52911 10.8741 1.96849 11.3135C2.40788 11.7528 3.00361 12 3.625 12.0007ZM2.84375 3.6671C2.844 3.45998 2.92639 3.26141 3.07285 3.11495C3.21931 2.96849 3.41788 2.8861 3.625 2.88585H9.61406C9.82119 2.8861 10.0198 2.96849 10.1662 3.11495C10.3127 3.26141 10.3951 3.45998 10.3953 3.6671V9.65695C10.3951 9.86407 10.3127 10.0626 10.1662 10.2091C10.0198 10.3556 9.82119 10.4379 9.61406 10.4382H3.625C3.41788 10.4379 3.21931 10.3556 3.07285 10.2091C2.92639 10.0626 2.844 9.86407 2.84375 9.65695V3.6671Z" fill="#333333"/>
<path d="M19.3804 14.0835C18.3246 14.0836 17.2924 14.3967 16.4145 14.9834C15.5366 15.57 14.8524 16.4038 14.4483 17.3793C14.0443 18.3549 13.9386 19.4283 14.1446 20.4639C14.3506 21.4994 14.8591 22.4507 15.6057 23.1973C16.3523 23.9439 17.3035 24.4524 18.3391 24.6584C19.3747 24.8644 20.4481 24.7587 21.4237 24.3547C22.3992 23.9506 23.233 23.2664 23.8196 22.3885C24.4063 21.5106 24.7194 20.4784 24.7195 19.4226C24.7183 18.0069 24.1553 16.6496 23.1543 15.6486C22.1533 14.6476 20.7961 14.0847 19.3804 14.0835ZM19.3804 23.1983C18.6336 23.1983 17.9035 22.9767 17.2825 22.5617C16.6615 22.1467 16.1776 21.5569 15.8918 20.8669C15.6061 20.1768 15.5313 19.4175 15.6771 18.685C15.8229 17.9525 16.1826 17.2797 16.7108 16.7516C17.239 16.2235 17.9119 15.8639 18.6444 15.7183C19.377 15.5727 20.1363 15.6476 20.8263 15.9335C21.5162 16.2194 22.106 16.7034 22.5208 17.3245C22.9357 17.9455 23.1571 18.6757 23.157 19.4226C23.1559 20.4238 22.7577 21.3836 22.0496 22.0915C21.3416 22.7994 20.3816 23.1975 19.3804 23.1983Z" fill="#333333"/>
</svg>
