<svg width="26" height="26" viewBox="0 0 26 26" fill="none" xmlns="http://www.w3.org/2000/svg">
<g clip-path="url(#clip0_431_683)">
<path d="M23.9472 10.1273L13.5586 2.67828C13.227 2.44658 12.7793 2.44399 12.4439 2.67828L2.05543 10.1273C1.00703 10.879 -0.131781 9.29418 0.918184 8.5413L11.3107 1.08943C11.313 1.08777 11.3153 1.08616 11.3177 1.0845C12.3207 0.37831 13.6702 0.370016 14.685 1.0845C14.6873 1.08611 14.6897 1.08777 14.6919 1.08943L25.0844 8.5413C26.1365 9.29569 24.9865 10.8726 23.9472 10.1273Z" fill="#333333"/>
<path d="M20.6119 25.5326H14.9522C14.4133 25.5326 13.9764 25.0958 13.9764 24.5568V20.6536C13.9764 20.1156 13.5387 19.6778 13.0006 19.6778C12.4625 19.6778 12.0248 20.1156 12.0248 20.6536V24.5568C12.0248 25.0958 11.5879 25.5326 11.049 25.5326H5.38933C3.77515 25.5326 2.46191 24.2194 2.46191 22.6052V13.8526C2.46191 12.9033 2.92435 12.0103 3.69918 11.4624L11.3075 5.97015C11.3106 5.96786 11.3138 5.96561 11.317 5.96337C12.3201 5.25738 13.6693 5.24903 14.6842 5.96337C14.6874 5.96561 14.6905 5.96786 14.6937 5.97015L22.3021 11.4624C23.0769 12.0103 23.5393 12.9034 23.5393 13.8526V22.6053C23.5393 24.2194 22.226 25.5326 20.6119 25.5326ZM15.928 23.581H20.6119C21.1499 23.581 21.5877 23.1433 21.5877 22.6052V13.8526C21.5877 13.5355 21.4329 13.2372 21.1735 13.0546C21.1703 13.0524 21.1671 13.0501 21.164 13.0479L13.557 7.55661C13.2252 7.32545 12.7786 7.32364 12.4441 7.55661L4.83722 13.0479C4.83409 13.0501 4.83092 13.0524 4.8277 13.0546C4.56838 13.2372 4.41352 13.5355 4.41352 13.8526V22.6052C4.41352 23.1433 4.85127 23.581 5.38933 23.581H10.0732V20.6536C10.0732 19.0394 11.3864 17.7262 13.0006 17.7262C14.6148 17.7262 15.928 19.0394 15.928 20.6536V23.581Z" fill="#333333"/>
</g>
<defs>
<clipPath id="clip0_431_683">
<rect width="25" height="25" fill="white" transform="translate(0.5 0.542114)"/>
</clipPath>
</defs>
</svg>
