<svg width="26" height="26" viewBox="0 0 26 26" fill="none" xmlns="http://www.w3.org/2000/svg">
<g clip-path="url(#clip0_309_466)">
<path d="M23 12.2062H22.0625C21.8753 11.4931 21.4571 10.8622 20.8734 10.4119C20.2896 9.96166 19.5732 9.71745 18.8359 9.71745C18.0987 9.71745 17.3823 9.96166 16.7985 10.4119C16.2148 10.8622 15.7966 11.4931 15.6094 12.2062H14.6719C14.2891 12.2081 13.9119 12.2991 13.5703 12.4718C13.7431 12.1302 13.834 11.7531 13.8359 11.3702V9.70618C13.8339 9.48583 13.7449 9.27521 13.5884 9.12012C13.4318 8.96504 13.2204 8.87804 13 8.87805C12.5576 8.87805 12.1334 8.70232 11.8206 8.38951C11.5078 8.07671 11.332 7.65246 11.332 7.21008C11.332 6.76771 11.5078 6.34346 11.8206 6.03065C12.1334 5.71785 12.5576 5.54211 13 5.54211C13.1098 5.54211 13.2185 5.52049 13.3199 5.47848C13.4213 5.43647 13.5135 5.3749 13.5911 5.29727C13.6687 5.21965 13.7303 5.1275 13.7723 5.02608C13.8143 4.92466 13.8359 4.81595 13.8359 4.70618V3.04211C13.8359 2.37907 13.5725 1.74319 13.1037 1.27435C12.6349 0.805506 11.999 0.542114 11.3359 0.542114H6.33594C4.78815 0.542114 3.30376 1.15697 2.20931 2.25142C1.11486 3.34587 0.5 4.83026 0.5 6.37805L0.5 11.3781C0.502408 11.9939 0.733498 12.587 1.14844 13.0421C0.733498 13.4973 0.502408 14.0903 0.5 14.7062L0.5 19.7062C0.5 21.254 1.11486 22.7384 2.20931 23.8328C3.30376 24.9273 4.78815 25.5421 6.33594 25.5421H11.3359C11.9518 25.5397 12.5449 25.3086 13 24.8937C13.4551 25.3086 14.0482 25.5397 14.6641 25.5421H19.6641C21.2118 25.5421 22.6962 24.9273 23.7907 23.8328C24.8851 22.7384 25.5 21.254 25.5 19.7062V14.7062C25.5 14.0431 25.2366 13.4073 24.7678 12.9384C24.2989 12.4696 23.663 12.2062 23 12.2062ZM2.16406 6.37805C2.16303 5.8299 2.27024 5.28695 2.47953 4.78033C2.68882 4.27371 2.99608 3.81339 3.38368 3.4258C3.77128 3.0382 4.23159 2.73094 4.73821 2.52165C5.24483 2.31235 5.78779 2.20515 6.33594 2.20618H11.3359C11.5563 2.20824 11.7669 2.29722 11.922 2.45376C12.0771 2.61031 12.1641 2.82176 12.1641 3.04211V3.97961C11.451 4.16684 10.8201 4.585 10.3698 5.16875C9.91955 5.7525 9.67534 6.46895 9.67534 7.20618C9.67534 7.9434 9.91955 8.65985 10.3698 9.2436C10.8201 9.82735 11.451 10.2455 12.1641 10.4327V11.3702C12.1641 11.5919 12.076 11.8046 11.9192 11.9613C11.7625 12.1181 11.5498 12.2062 11.3281 12.2062H9.66406C9.44371 12.2082 9.23309 12.2972 9.07801 12.4538C8.92293 12.6103 8.83593 12.8218 8.83594 13.0421C8.83594 13.4845 8.66021 13.9087 8.3474 14.2215C8.0346 14.5344 7.61034 14.7101 7.16797 14.7101C6.7256 14.7101 6.30134 14.5344 5.98854 14.2215C5.67573 13.9087 5.5 13.4845 5.5 13.0421C5.5 12.9323 5.47838 12.8236 5.43637 12.7222C5.39436 12.6208 5.33278 12.5286 5.25516 12.451C5.17754 12.3734 5.08538 12.3118 4.98396 12.2698C4.88254 12.2278 4.77384 12.2062 4.66406 12.2062H3C2.7783 12.2062 2.56567 12.1181 2.4089 11.9613C2.25213 11.8046 2.16406 11.5919 2.16406 11.3702V6.37805ZM11.3281 23.8781H6.33594C5.23156 23.8781 4.17241 23.4393 3.3915 22.6584C2.61059 21.8775 2.17188 20.8184 2.17188 19.714V14.714C2.17187 14.4936 2.25886 14.2822 2.41395 14.1256C2.56903 13.9691 2.77965 13.8801 3 13.8781H3.9375C4.12473 14.5911 4.54289 15.222 5.12664 15.6723C5.71038 16.1226 6.42684 16.3668 7.16406 16.3668C7.90128 16.3668 8.61774 16.1226 9.20149 15.6723C9.78524 15.222 10.2034 14.5911 10.3906 13.8781H11.3281C11.5498 13.8781 11.7625 13.9661 11.9192 14.1229C12.076 14.2797 12.1641 14.4923 12.1641 14.714V16.3781C12.1661 16.5984 12.2551 16.809 12.4116 16.9641C12.5682 17.1192 12.7796 17.2062 13 17.2062C13.4424 17.2062 13.8666 17.3819 14.1794 17.6947C14.4922 18.0075 14.668 18.4318 14.668 18.8741C14.668 19.3165 14.4922 19.7408 14.1794 20.0536C13.8666 20.3664 13.4424 20.5421 13 20.5421C12.7783 20.5421 12.5657 20.6302 12.4089 20.787C12.2521 20.9437 12.1641 21.1563 12.1641 21.3781V23.0421C12.1641 23.2625 12.0771 23.4739 11.922 23.6305C11.7669 23.787 11.5563 23.876 11.3359 23.8781H11.3281ZM23.8281 19.714C23.8281 20.8184 23.3894 21.8775 22.6085 22.6584C21.8276 23.4393 20.7684 23.8781 19.6641 23.8781H14.6641C14.4424 23.8781 14.2297 23.79 14.073 23.6332C13.9162 23.4764 13.8281 23.2638 13.8281 23.0421V22.1046C14.5412 21.9174 15.1721 21.4992 15.6224 20.9155C16.0726 20.3317 16.3168 19.6153 16.3168 18.8781C16.3168 18.1408 16.0726 17.4244 15.6224 16.8406C15.1721 16.2569 14.5412 15.8387 13.8281 15.6515V14.714C13.8281 14.4923 13.9162 14.2797 14.073 14.1229C14.2297 13.9661 14.4424 13.8781 14.6641 13.8781H16.3281C16.5498 13.8781 16.7625 13.79 16.9192 13.6332C17.076 13.4764 17.1641 13.2638 17.1641 13.0421C17.1641 12.5997 17.3398 12.1755 17.6526 11.8627C17.9654 11.5499 18.3897 11.3741 18.832 11.3741C19.2744 11.3741 19.6987 11.5499 20.0115 11.8627C20.3243 12.1755 20.5 12.5997 20.5 13.0421C20.5 13.2638 20.5881 13.4764 20.7448 13.6332C20.9016 13.79 21.1142 13.8781 21.3359 13.8781H23C23.2217 13.8781 23.4343 13.9661 23.5911 14.1229C23.7479 14.2797 23.8359 14.4923 23.8359 14.714L23.8281 19.714Z" fill="#333333"/>
</g>
<defs>
<clipPath id="clip0_309_466">
<rect width="25" height="25" fill="white" transform="translate(0.5 0.542114)"/>
</clipPath>
</defs>
</svg>
