<svg width="26" height="26" viewBox="0 0 26 26" fill="none" xmlns="http://www.w3.org/2000/svg">
<path d="M24.1356 11.813C24.0868 11.3636 23.8737 10.9481 23.5373 10.6463C23.2008 10.3444 22.7647 10.1775 22.3127 10.1776H21.6564C21.5234 9.7534 21.3379 9.34748 21.1043 8.96924L21.6043 8.45882C21.9257 8.13932 22.1166 7.71158 22.1397 7.25901C22.1628 6.80643 22.0165 6.36147 21.7293 6.0109C21.2206 5.37721 20.6443 4.80088 20.0106 4.29215C19.6584 4.00427 19.2117 3.85764 18.7573 3.88074C18.303 3.90384 17.8735 4.09503 17.5523 4.41715L17.1043 4.89632C16.7152 4.68266 16.2979 4.52486 15.8648 4.42757V3.72965C15.8672 3.27974 15.7022 2.845 15.4018 2.51C15.1015 2.17501 14.6873 1.96369 14.2398 1.91715C13.4195 1.82344 12.5913 1.82344 11.771 1.91715C11.3216 1.96126 10.9049 2.17153 10.6024 2.50678C10.2999 2.84202 10.1334 3.27811 10.1356 3.72965V4.3859C9.71066 4.51695 9.3045 4.70252 8.92726 4.93799L8.42726 4.43799C8.10604 4.11586 7.67652 3.92467 7.2222 3.90157C6.76787 3.87847 6.32117 4.02511 5.96893 4.31299C5.34252 4.82287 4.77322 5.39915 4.27101 6.03174C3.98385 6.3823 3.83756 6.82726 3.86067 7.27984C3.88379 7.73242 4.07464 8.16016 4.39601 8.47965L4.87518 8.93799C4.66485 9.32865 4.50722 9.74548 4.40643 10.1776H3.68768C3.23567 10.1775 2.79956 10.3444 2.4631 10.6463C2.12665 10.9481 1.91356 11.3636 1.86476 11.813C1.78141 12.6303 1.78141 13.454 1.86476 14.2713C1.91356 14.7207 2.12665 15.1362 2.4631 15.438C2.79956 15.7399 3.23567 15.9068 3.68768 15.9067H4.34393C4.47903 16.3301 4.66438 16.7358 4.89601 17.1151L4.39601 17.6255C4.07464 17.945 3.88379 18.3727 3.86067 18.8253C3.83756 19.2779 3.98385 19.7228 4.27101 20.0734C4.77975 20.7071 5.35607 21.2834 5.98976 21.7922C6.34201 22.08 6.7887 22.2267 7.24303 22.2036C7.69736 22.1805 8.12687 21.9893 8.4481 21.6672L8.89602 21.188C9.28516 21.4016 9.70245 21.5594 10.1356 21.6567V22.3755C10.1332 22.8254 10.2982 23.2601 10.5985 23.5951C10.8989 23.9301 11.3131 24.1415 11.7606 24.188C12.1718 24.2385 12.5859 24.2629 13.0002 24.2609C13.411 24.2632 13.8216 24.2388 14.2293 24.188C14.6787 24.1439 15.0955 23.9336 15.398 23.5984C15.7005 23.2631 15.8669 22.827 15.8648 22.3755V21.7192C16.2897 21.5882 16.6959 21.4026 17.0731 21.1672L17.5731 21.6672C17.8943 21.9893 18.3238 22.1805 18.7782 22.2036C19.2325 22.2267 19.6792 22.08 20.0314 21.7922C20.6676 21.2862 21.2442 20.7096 21.7502 20.0734C22.0365 19.7231 22.1831 19.2794 22.162 18.8275C22.1408 18.3756 21.9534 17.9475 21.6356 17.6255L21.146 17.1672C21.3597 16.778 21.5175 16.3607 21.6148 15.9276H22.3335C22.7855 15.9276 23.2216 15.7607 23.5581 15.4589C23.8945 15.157 24.1076 14.7415 24.1564 14.2922C24.2398 13.4748 24.2398 12.6511 24.1564 11.8338L24.1356 11.813ZM22.5731 14.0838C22.5679 14.1492 22.5381 14.2102 22.4898 14.2546C22.4416 14.2991 22.3783 14.3236 22.3127 14.3234H21.5939C21.2772 14.3268 20.9694 14.429 20.7136 14.6157C20.4578 14.8025 20.2666 15.0645 20.1668 15.3651C20.0528 15.7248 19.9063 16.0734 19.7293 16.4067C19.5636 16.7006 19.5003 17.0412 19.5493 17.375C19.5983 17.7087 19.7569 18.0167 20.0002 18.2505L20.5106 18.7609C20.556 18.8108 20.5811 18.8758 20.5811 18.9432C20.5811 19.0106 20.556 19.0756 20.5106 19.1255C20.0765 19.6742 19.5801 20.1706 19.0314 20.6047C18.9816 20.65 18.9166 20.6752 18.8491 20.6752C18.7817 20.6752 18.7167 20.65 18.6668 20.6047L18.2085 20.0422C17.9808 19.8177 17.6881 19.6707 17.3721 19.6221C17.0561 19.5734 16.7328 19.6257 16.4481 19.7713C16.1148 19.9483 15.7662 20.0947 15.4064 20.2088C15.1058 20.3086 14.8439 20.4997 14.6571 20.7556C14.4704 21.0114 14.3682 21.3192 14.3648 21.6359V22.3547C14.365 22.4203 14.3404 22.4835 14.296 22.5318C14.2516 22.5801 14.1906 22.6098 14.1252 22.6151C13.433 22.6952 12.734 22.6952 12.0418 22.6151C11.9765 22.6098 11.9154 22.5801 11.871 22.5318C11.8266 22.4835 11.8021 22.4203 11.8023 22.3547V21.6359C11.7989 21.3192 11.6967 21.0114 11.5099 20.7556C11.3232 20.4997 11.0612 20.3086 10.7606 20.2088C10.4009 20.0947 10.0522 19.9483 9.71893 19.7713C9.5015 19.6648 9.26312 19.6079 9.02101 19.6047C8.63094 19.6134 8.2587 19.7698 7.97935 20.0422L7.47935 20.5526C7.42948 20.598 7.36448 20.6231 7.29706 20.6231C7.22963 20.6231 7.16463 20.598 7.11476 20.5526C6.56608 20.1185 6.06969 19.6221 5.6356 19.0734C5.58788 19.0247 5.56116 18.9593 5.56116 18.8911C5.56116 18.8229 5.58788 18.7575 5.6356 18.7088L6.00018 18.2505C6.22327 18.0219 6.36932 17.7294 6.41789 17.4137C6.46645 17.098 6.4151 16.7751 6.27101 16.4901C6.09565 16.156 5.94928 15.8075 5.83351 15.4484C5.73374 15.1478 5.54259 14.8858 5.28675 14.6991C5.03091 14.5123 4.72316 14.4101 4.40643 14.4067H3.68768C3.64753 14.4079 3.60764 14.3998 3.57115 14.383C3.53466 14.3662 3.50255 14.3412 3.47733 14.3099C3.45211 14.2786 3.43447 14.242 3.42578 14.2027C3.4171 14.1635 3.41761 14.1228 3.42726 14.0838C3.34718 13.3917 3.34718 12.6926 3.42726 12.0005C3.43251 11.9351 3.46225 11.8741 3.51053 11.8297C3.55881 11.7853 3.62208 11.7607 3.68768 11.7609H4.40643C4.72316 11.7575 5.03091 11.6553 5.28675 11.4686C5.54259 11.2818 5.73374 11.0199 5.83351 10.7192C5.94928 10.3601 6.09565 10.0116 6.27101 9.67757C6.43499 9.38326 6.49733 9.04308 6.44836 8.70975C6.3994 8.37642 6.24187 8.06854 6.00018 7.83382L5.48976 7.33382C5.44438 7.28395 5.41923 7.21895 5.41923 7.15153C5.41923 7.0841 5.44438 7.0191 5.48976 6.96924C5.92631 6.43515 6.4226 5.95284 6.96893 5.53174C7.0188 5.48635 7.0838 5.4612 7.15122 5.4612C7.21865 5.4612 7.28365 5.48635 7.33351 5.53174L7.79185 6.04215C8.01956 6.26663 8.31223 6.41362 8.62826 6.46224C8.94429 6.51086 9.26761 6.45863 9.55226 6.31299C9.88557 6.136 10.2342 5.98957 10.5939 5.87549C10.8945 5.77571 11.1565 5.58456 11.3433 5.32872C11.53 5.07289 11.6322 4.76513 11.6356 4.4484V3.72965C11.6344 3.6895 11.6425 3.64961 11.6593 3.61312C11.6761 3.57663 11.7012 3.54452 11.7324 3.5193C11.7637 3.49408 11.8004 3.47644 11.8396 3.46776C11.8788 3.45907 11.9195 3.45958 11.9585 3.46924C12.6507 3.38915 13.3497 3.38915 14.0418 3.46924C14.1072 3.47448 14.1682 3.50422 14.2127 3.5525C14.2571 3.60078 14.2816 3.66405 14.2814 3.72965V4.4484C14.2848 4.76513 14.387 5.07289 14.5738 5.32872C14.7605 5.58456 15.0225 5.77571 15.3231 5.87549C15.6828 5.98957 16.0315 6.136 16.3648 6.31299C16.6591 6.47696 16.9993 6.5393 17.3326 6.49033C17.6659 6.44137 17.9738 6.28384 18.2085 6.04215L18.7085 5.53174C18.7584 5.48635 18.8234 5.4612 18.8908 5.4612C18.9582 5.4612 19.0232 5.48635 19.0731 5.53174C19.6218 5.96583 20.1182 6.46222 20.5523 7.0109C20.6 7.05958 20.6267 7.12503 20.6267 7.19319C20.6267 7.26136 20.6 7.32681 20.5523 7.37549L20.0002 7.83382C19.7771 8.06236 19.631 8.35494 19.5825 8.6706C19.5339 8.98626 19.5853 9.30921 19.7293 9.59423C19.9063 9.92754 20.0528 10.2762 20.1668 10.6359C20.2666 10.9365 20.4578 11.1985 20.7136 11.3852C20.9694 11.572 21.2772 11.6742 21.5939 11.6776H22.3127C22.3783 11.6774 22.4416 11.7019 22.4898 11.7463C22.5381 11.7908 22.5679 11.8518 22.5731 11.9172C22.6532 12.6093 22.6532 13.3084 22.5731 14.0005V14.0838ZM17.9481 9.91715C17.9454 10.1235 17.8622 10.3207 17.7163 10.4666C17.5704 10.6125 17.3732 10.6957 17.1668 10.6984H15.8648V11.4797C15.8648 11.6869 15.7825 11.8856 15.6359 12.0321C15.4894 12.1786 15.2907 12.2609 15.0835 12.2609C14.8763 12.2609 14.6776 12.1786 14.5311 12.0321C14.3846 11.8856 14.3023 11.6869 14.3023 11.4797V10.6984H8.83351C8.62631 10.6984 8.4276 10.6161 8.28109 10.4696C8.13457 10.3231 8.05226 10.1244 8.05226 9.91715C8.05226 9.70995 8.13457 9.51124 8.28109 9.36473C8.4276 9.21821 8.62631 9.1359 8.83351 9.1359H14.3023V8.35465C14.3023 8.14745 14.3846 7.94874 14.5311 7.80222C14.6776 7.65571 14.8763 7.5734 15.0835 7.5734C15.2907 7.5734 15.4894 7.65571 15.6359 7.80222C15.7825 7.94874 15.8648 8.14745 15.8648 8.35465V9.1359H17.1668C17.3732 9.1386 17.5704 9.22178 17.7163 9.36771C17.8622 9.51364 17.9454 9.71079 17.9481 9.91715ZM17.9481 16.1672C17.9454 16.3735 17.8622 16.5707 17.7163 16.7166C17.5704 16.8625 17.3732 16.9457 17.1668 16.9484H11.6981V17.7297C11.6981 17.9369 11.6158 18.1356 11.4693 18.2821C11.3228 18.4286 11.124 18.5109 10.9168 18.5109C10.7096 18.5109 10.5109 18.4286 10.3644 18.2821C10.2179 18.1356 10.1356 17.9369 10.1356 17.7297V16.9484H8.83351C8.62631 16.9484 8.4276 16.8661 8.28109 16.7196C8.13457 16.5731 8.05226 16.3744 8.05226 16.1672C8.05226 15.96 8.13457 15.7612 8.28109 15.6147C8.4276 15.4682 8.62631 15.3859 8.83351 15.3859H10.1356V14.6047C10.1356 14.3975 10.2179 14.1987 10.3644 14.0522C10.5109 13.9057 10.7096 13.8234 10.9168 13.8234C11.124 13.8234 11.3228 13.9057 11.4693 14.0522C11.6158 14.1987 11.6981 14.3975 11.6981 14.6047V15.3859H17.1668C17.3732 15.3886 17.5704 15.4718 17.7163 15.6177C17.8622 15.7636 17.9454 15.9608 17.9481 16.1672Z" fill="#333333"/>
</svg>
